<?xml version="1.0" encoding="utf-8"?>
<!-- Generator: Adobe Illustrator 16.0.0, SVG Export Plug-In . SVG Version: 6.00 Build 0)  -->
<!DOCTYPE svg PUBLIC "-//W3C//DTD SVG 1.1//EN" "http://www.w3.org/Graphics/SVG/1.1/DTD/svg11.dtd" [
	<!ENTITY ns_extend "http://ns.adobe.com/Extensibility/1.0/">
	<!ENTITY ns_ai "http://ns.adobe.com/AdobeIllustrator/10.0/">
	<!ENTITY ns_graphs "http://ns.adobe.com/Graphs/1.0/">
	<!ENTITY ns_vars "http://ns.adobe.com/Variables/1.0/">
	<!ENTITY ns_imrep "http://ns.adobe.com/ImageReplacement/1.0/">
	<!ENTITY ns_sfw "http://ns.adobe.com/SaveForWeb/1.0/">
	<!ENTITY ns_custom "http://ns.adobe.com/GenericCustomNamespace/1.0/">
	<!ENTITY ns_adobe_xpath "http://ns.adobe.com/XPath/1.0/">
]>
<svg version="1.1" id="Layer_1" xmlns:x="&ns_extend;" xmlns:i="&ns_ai;" xmlns:graph="&ns_graphs;"
	 xmlns="http://www.w3.org/2000/svg" xmlns:xlink="http://www.w3.org/1999/xlink" x="0px" y="0px" width="672px" height="508px"
	 viewBox="0 0 672 508" enable-background="new 0 0 672 508" xml:space="preserve">
<metadata>
	<sfw  xmlns="&ns_sfw;">
		<slices></slices>
		<sliceSourceBounds  width="1400" height="980" x="0" y="0" bottomLeftOrigin="true"></sliceSourceBounds>
	</sfw>
</metadata>
<g display="none">
	<defs>
		<rect id="SVGID_1_" x="-23" y="-27" width="1400" height="980"/>
	</defs>
	<clipPath id="SVGID_2_" display="inline">
		<use xlink:href="#SVGID_1_"  overflow="visible"/>
	</clipPath>
	<path display="inline" clip-path="url(#SVGID_2_)" fill="#A6C8DD" d="M584.4,419.925V155.202c0-9.392,7.613-17.005,17.004-17.005
		h192.295c9.392,0,17.005,7.613,17.005,17.005v264.723c0,9.391-7.613,17.004-17.005,17.004H601.404
		C592.013,436.929,584.4,429.316,584.4,419.925"/>
	
		<path display="inline" clip-path="url(#SVGID_2_)" fill="none" stroke="#4D4D4D" stroke-width="7" stroke-linecap="round" stroke-linejoin="round" stroke-miterlimit="10" d="
		M584.4,419.925V155.202c0-9.392,7.613-17.005,17.004-17.005h192.295c9.392,0,17.005,7.613,17.005,17.005v264.723
		c0,9.391-7.613,17.004-17.005,17.004H601.404C592.013,436.929,584.4,429.316,584.4,419.925z"/>
	<path display="inline" clip-path="url(#SVGID_2_)" fill="#EFD3B6" d="M721.57,208.591c0,13.265-10.753,24.018-24.02,24.018
		c-13.264,0-24.017-10.753-24.017-24.018s10.753-24.018,24.017-24.018C710.817,184.573,721.57,195.326,721.57,208.591"/>
	
		<circle display="inline" clip-path="url(#SVGID_2_)" fill="none" stroke="#4D4D4D" stroke-width="7" stroke-linecap="round" stroke-linejoin="round" stroke-miterlimit="10" cx="697.552" cy="208.591" r="24.018"/>
	<path display="inline" clip-path="url(#SVGID_2_)" fill="#E6E6E6" d="M650.057,287.938c0-26.231,21.264-47.495,47.495-47.495
		c26.231,0,47.496,21.264,47.496,47.495C745.048,301.679,650.057,301.679,650.057,287.938"/>
	
		<path display="inline" clip-path="url(#SVGID_2_)" fill="none" stroke="#4D4D4D" stroke-width="7" stroke-linecap="round" stroke-linejoin="round" stroke-miterlimit="10" d="
		M650.057,287.938c0-26.231,21.264-47.495,47.495-47.495c26.231,0,47.496,21.264,47.496,47.495
		C745.048,301.679,650.057,301.679,650.057,287.938z"/>
	<path display="inline" clip-path="url(#SVGID_2_)" fill="#DD6966" d="M686.341,241.777l11.211,11.211l11.212-11.211
		c-3.596-0.87-7.349-1.334-11.212-1.334C693.689,240.443,689.937,240.907,686.341,241.777"/>
	
		<path display="inline" clip-path="url(#SVGID_2_)" fill="none" stroke="#4D4D4D" stroke-width="7" stroke-linecap="round" stroke-linejoin="round" stroke-miterlimit="10" d="
		M686.341,241.777l11.211,11.211l11.212-11.211c-3.596-0.87-7.349-1.334-11.212-1.334
		C693.689,240.443,689.937,240.907,686.341,241.777z"/>
	<polygon display="inline" clip-path="url(#SVGID_2_)" fill="#DD6966" points="697.552,293.159 685.61,281.217 697.552,252.852 
		709.494,281.217 	"/>
	
		<polygon display="inline" clip-path="url(#SVGID_2_)" fill="none" stroke="#4D4D4D" stroke-width="7" stroke-linecap="round" stroke-linejoin="round" stroke-miterlimit="10" points="
		697.552,293.159 685.61,281.217 697.552,252.852 709.494,281.217 	"/>
	<path display="inline" clip-path="url(#SVGID_2_)" fill="#666666" d="M760.088,353.176H635.016c-4.818,0-8.723-3.906-8.723-8.724
		c0-4.818,3.905-8.724,8.723-8.724h125.072c4.818,0,8.725,3.906,8.725,8.724C768.813,349.27,764.906,353.176,760.088,353.176"/>
	
		<path display="inline" clip-path="url(#SVGID_2_)" fill="none" stroke="#4D4D4D" stroke-width="7" stroke-linecap="round" stroke-linejoin="round" stroke-miterlimit="10" d="
		M760.088,353.176H635.016c-4.818,0-8.723-3.906-8.723-8.724c0-4.818,3.905-8.724,8.723-8.724h125.072
		c4.818,0,8.725,3.906,8.725,8.724C768.813,349.27,764.906,353.176,760.088,353.176z"/>
	<path display="inline" clip-path="url(#SVGID_2_)" fill="#666666" d="M760.088,380.298H635.016c-4.818,0-8.723-3.906-8.723-8.724
		c0-4.818,3.905-8.724,8.723-8.724h125.072c4.818,0,8.725,3.906,8.725,8.724C768.813,376.392,764.906,380.298,760.088,380.298"/>
	
		<path display="inline" clip-path="url(#SVGID_2_)" fill="none" stroke="#4D4D4D" stroke-width="7" stroke-linecap="round" stroke-linejoin="round" stroke-miterlimit="10" d="
		M760.088,380.298H635.016c-4.818,0-8.723-3.906-8.723-8.724c0-4.818,3.905-8.724,8.723-8.724h125.072
		c4.818,0,8.725,3.906,8.725,8.724C768.813,376.392,764.906,380.298,760.088,380.298z"/>
	<path display="inline" clip-path="url(#SVGID_2_)" fill="#666666" d="M760.088,407.419H635.016c-4.818,0-8.723-3.906-8.723-8.724
		c0-4.818,3.905-8.724,8.723-8.724h125.072c4.818,0,8.725,3.906,8.725,8.724C768.813,403.514,764.906,407.419,760.088,407.419"/>
	
		<path display="inline" clip-path="url(#SVGID_2_)" fill="none" stroke="#4D4D4D" stroke-width="7" stroke-linecap="round" stroke-linejoin="round" stroke-miterlimit="10" d="
		M760.088,407.419H635.016c-4.818,0-8.723-3.906-8.723-8.724c0-4.818,3.905-8.724,8.723-8.724h125.072
		c4.818,0,8.725,3.906,8.725,8.724C768.813,403.514,764.906,407.419,760.088,407.419z"/>
	<path display="inline" clip-path="url(#SVGID_2_)" fill="#F2F2F2" d="M1197.818,354.383H892.518
		c-9.803,0-17.752-7.948-17.752-17.752V155.949c0-9.804,7.949-17.752,17.752-17.752h305.301c9.805,0,17.752,7.948,17.752,17.752
		v180.682C1215.57,346.435,1207.623,354.383,1197.818,354.383"/>
	
		<path display="inline" clip-path="url(#SVGID_2_)" fill="none" stroke="#4D4D4D" stroke-width="7" stroke-linecap="round" stroke-linejoin="round" stroke-miterlimit="10" d="
		M1197.818,354.383H892.518c-9.803,0-17.752-7.948-17.752-17.752V155.949c0-9.804,7.949-17.752,17.752-17.752h305.301
		c9.805,0,17.752,7.948,17.752,17.752v180.682C1215.57,346.435,1207.623,354.383,1197.818,354.383z"/>
	<path display="inline" clip-path="url(#SVGID_2_)" fill="#EFD3B6" d="M986.443,241.625c0,12.672-10.271,22.944-22.944,22.944
		c-12.671,0-22.943-10.272-22.943-22.944c0-12.671,10.272-22.944,22.943-22.944C976.172,218.682,986.443,228.955,986.443,241.625"/>
	
		<circle display="inline" clip-path="url(#SVGID_2_)" fill="none" stroke="#4D4D4D" stroke-width="7" stroke-linecap="round" stroke-linejoin="round" stroke-miterlimit="10" cx="963.5" cy="241.625" r="22.944"/>
	<path display="inline" clip-path="url(#SVGID_2_)" fill="#E6E6E6" d="M918.128,317.425c0-25.059,20.313-45.372,45.371-45.372
		c25.059,0,45.372,20.313,45.372,45.372C1008.871,330.551,918.128,330.551,918.128,317.425"/>
	
		<path display="inline" clip-path="url(#SVGID_2_)" fill="none" stroke="#4D4D4D" stroke-width="7" stroke-linecap="round" stroke-linejoin="round" stroke-miterlimit="10" d="
		M918.128,317.425c0-25.059,20.313-45.372,45.371-45.372c25.059,0,45.372,20.313,45.372,45.372
		C1008.871,330.551,918.128,330.551,918.128,317.425z"/>
	<path display="inline" clip-path="url(#SVGID_2_)" fill="#DD6966" d="M952.789,273.328l10.71,10.71l10.711-10.71
		c-3.435-0.831-7.021-1.275-10.711-1.275C959.811,272.053,956.225,272.497,952.789,273.328"/>
	
		<path display="inline" clip-path="url(#SVGID_2_)" fill="none" stroke="#4D4D4D" stroke-width="7" stroke-linecap="round" stroke-linejoin="round" stroke-miterlimit="10" d="
		M952.789,273.328l10.71,10.71l10.711-10.71c-3.435-0.831-7.021-1.275-10.711-1.275
		C959.811,272.053,956.225,272.497,952.789,273.328z"/>
	<polygon display="inline" clip-path="url(#SVGID_2_)" fill="#DD6966" points="963.499,322.412 952.092,311.004 963.499,283.908 
		974.907,311.004 	"/>
	
		<polygon display="inline" clip-path="url(#SVGID_2_)" fill="none" stroke="#4D4D4D" stroke-width="7" stroke-linecap="round" stroke-linejoin="round" stroke-miterlimit="10" points="
		963.499,322.412 952.092,311.004 963.499,283.908 974.907,311.004 	"/>
	<path display="inline" clip-path="url(#SVGID_2_)" fill="#666666" d="M1172.981,235.421h-119.479c-4.603,0-8.334-3.731-8.334-8.334
		s3.731-8.334,8.334-8.334h119.479c4.603,0,8.334,3.731,8.334,8.334S1177.584,235.421,1172.981,235.421"/>
	
		<path display="inline" clip-path="url(#SVGID_2_)" fill="none" stroke="#4D4D4D" stroke-width="7" stroke-linecap="round" stroke-linejoin="round" stroke-miterlimit="10" d="
		M1172.981,235.421h-119.479c-4.603,0-8.334-3.731-8.334-8.334s3.731-8.334,8.334-8.334h119.479c4.603,0,8.334,3.731,8.334,8.334
		S1177.584,235.421,1172.981,235.421z"/>
	<path display="inline" clip-path="url(#SVGID_2_)" fill="#666666" d="M1172.981,281.309h-119.479c-4.603,0-8.334-3.731-8.334-8.333
		c0-4.604,3.731-8.334,8.334-8.334h119.479c4.603,0,8.334,3.73,8.334,8.334C1181.315,277.578,1177.584,281.309,1172.981,281.309"/>
	
		<path display="inline" clip-path="url(#SVGID_2_)" fill="none" stroke="#4D4D4D" stroke-width="7" stroke-linecap="round" stroke-linejoin="round" stroke-miterlimit="10" d="
		M1172.981,281.309h-119.479c-4.603,0-8.334-3.731-8.334-8.333c0-4.604,3.731-8.334,8.334-8.334h119.479
		c4.603,0,8.334,3.73,8.334,8.334C1181.315,277.578,1177.584,281.309,1172.981,281.309z"/>
	<path display="inline" clip-path="url(#SVGID_2_)" fill="#666666" d="M1172.981,327.198h-119.479c-4.603,0-8.334-3.731-8.334-8.334
		s3.731-8.334,8.334-8.334h119.479c4.603,0,8.334,3.731,8.334,8.334S1177.584,327.198,1172.981,327.198"/>
	
		<path display="inline" clip-path="url(#SVGID_2_)" fill="none" stroke="#4D4D4D" stroke-width="7" stroke-linecap="round" stroke-linejoin="round" stroke-miterlimit="10" d="
		M1172.981,327.198h-119.479c-4.603,0-8.334-3.731-8.334-8.334s3.731-8.334,8.334-8.334h119.479c4.603,0,8.334,3.731,8.334,8.334
		S1177.584,327.198,1172.981,327.198z"/>
	<path display="inline" clip-path="url(#SVGID_2_)" fill="#DD6966" d="M1171.529,188.647H918.808
		c-7.718,0-13.974-6.256-13.974-13.974c0-7.717,6.256-13.973,13.974-13.973h252.722c7.717,0,13.974,6.256,13.974,13.973
		C1185.503,182.392,1179.246,188.647,1171.529,188.647"/>
	
		<path display="inline" clip-path="url(#SVGID_2_)" fill="none" stroke="#4D4D4D" stroke-width="7" stroke-linecap="round" stroke-linejoin="round" stroke-miterlimit="10" d="
		M1171.529,188.647H918.808c-7.718,0-13.974-6.256-13.974-13.974c0-7.717,6.256-13.973,13.974-13.973h252.722
		c7.717,0,13.974,6.256,13.974,13.973C1185.503,182.392,1179.246,188.647,1171.529,188.647z"/>
	
		<rect x="717.919" y="652.583" transform="matrix(0.7071 -0.7071 0.7071 0.7071 -270.0219 715.8957)" display="inline" clip-path="url(#SVGID_2_)" fill="#B3B3B3" width="22.54" height="62.649"/>
	
		<rect x="717.919" y="652.583" transform="matrix(0.7071 -0.7071 0.7071 0.7071 -270.0219 715.8957)" display="inline" clip-path="url(#SVGID_2_)" fill="none" stroke="#4D4D4D" stroke-width="7" stroke-linecap="round" stroke-linejoin="round" stroke-miterlimit="10" width="22.54" height="62.649"/>
	<path display="inline" clip-path="url(#SVGID_2_)" fill="#666666" d="M826.259,780.769L826.259,780.769
		c-9.38,9.38-24.587,9.38-33.966,0l-57.784-57.784c-9.379-9.379-9.379-24.586,0-33.965v-0.001c9.379-9.379,24.586-9.379,33.965,0
		l57.785,57.785C835.638,756.183,835.638,771.39,826.259,780.769"/>
	
		<path display="inline" clip-path="url(#SVGID_2_)" fill="none" stroke="#4D4D4D" stroke-width="7" stroke-linecap="round" stroke-linejoin="round" stroke-miterlimit="10" d="
		M826.259,780.769L826.259,780.769c-9.38,9.38-24.587,9.38-33.966,0l-57.784-57.784c-9.379-9.379-9.379-24.586,0-33.965v-0.001
		c9.379-9.379,24.586-9.379,33.965,0l57.785,57.785C835.638,756.183,835.638,771.39,826.259,780.769z"/>
	<path display="inline" clip-path="url(#SVGID_2_)" fill="#C3EDF5" d="M649.242,530.977c-40.193,0-72.776,32.583-72.776,72.776
		c0,40.192,32.583,72.775,72.776,72.775c40.193,0,72.776-32.583,72.776-72.775C722.019,563.56,689.436,530.977,649.242,530.977"/>
</g>
<g>
	<path fill="#EFD3B6" d="M491.036,211.264c0,17.427-14.127,31.555-31.555,31.555c-17.427,0-31.555-14.128-31.555-31.555
		c0-17.427,14.128-31.555,31.555-31.555C476.909,179.709,491.036,193.837,491.036,211.264"/>
	
		<circle fill="none" stroke="#4D4D4D" stroke-width="7" stroke-linecap="round" stroke-linejoin="round" stroke-miterlimit="10" cx="459.481" cy="211.264" r="31.555"/>
	<path fill="#C4D89B" d="M397.082,315.51c0-34.462,27.937-62.399,62.399-62.399s62.4,27.937,62.4,62.399
		C521.881,333.563,397.082,333.563,397.082,315.51"/>
	<path fill="none" stroke="#4D4D4D" stroke-width="7" stroke-linecap="round" stroke-linejoin="round" stroke-miterlimit="10" d="
		M397.082,315.51c0-34.462,27.937-62.399,62.399-62.399s62.4,27.937,62.4,62.399C521.881,333.563,397.082,333.563,397.082,315.51z"
		/>
	<path fill="#F69652" d="M444.752,254.864l14.729,14.729l14.73-14.729c-4.724-1.143-9.655-1.753-14.73-1.753
		C454.407,253.111,449.475,253.721,444.752,254.864"/>
	<path fill="none" stroke="#4D4D4D" stroke-width="7" stroke-linecap="round" stroke-linejoin="round" stroke-miterlimit="10" d="
		M444.752,254.864l14.729,14.729l14.73-14.729c-4.724-1.143-9.655-1.753-14.73-1.753
		C454.407,253.111,449.475,253.721,444.752,254.864z"/>
	<polygon fill="#F69652" points="459.481,322.369 443.792,306.68 459.481,269.414 475.17,306.68 	"/>
	
		<polygon fill="none" stroke="#4D4D4D" stroke-width="7" stroke-linecap="round" stroke-linejoin="round" stroke-miterlimit="10" points="
		459.481,322.369 443.792,306.68 459.481,269.414 475.17,306.68 	"/>
	<path fill="#EFD3B6" d="M219.204,211.264c0,17.427-14.127,31.555-31.555,31.555c-17.427,0-31.555-14.128-31.555-31.555
		c0-17.427,14.128-31.555,31.555-31.555C205.077,179.709,219.204,193.837,219.204,211.264"/>
	
		<circle fill="none" stroke="#4D4D4D" stroke-width="7" stroke-linecap="round" stroke-linejoin="round" stroke-miterlimit="10" cx="187.649" cy="211.264" r="31.555"/>
	<path fill="#C3EDF5" d="M125.249,315.51c0-34.462,27.937-62.399,62.399-62.399c34.463,0,62.4,27.937,62.4,62.399
		C250.048,333.563,125.249,333.563,125.249,315.51"/>
	<path fill="none" stroke="#4D4D4D" stroke-width="7" stroke-linecap="round" stroke-linejoin="round" stroke-miterlimit="10" d="
		M125.249,315.51c0-34.462,27.937-62.399,62.399-62.399c34.463,0,62.4,27.937,62.4,62.399
		C250.048,333.563,125.249,333.563,125.249,315.51z"/>
	<path fill="#7AACCC" d="M172.919,254.864l14.729,14.729l14.729-14.729c-4.723-1.143-9.654-1.753-14.729-1.753
		C182.574,253.111,177.643,253.721,172.919,254.864"/>
	<path fill="none" stroke="#4D4D4D" stroke-width="7" stroke-linecap="round" stroke-linejoin="round" stroke-miterlimit="10" d="
		M172.919,254.864l14.729,14.729l14.729-14.729c-4.723-1.143-9.654-1.753-14.729-1.753
		C182.574,253.111,177.643,253.721,172.919,254.864z"/>
	<polygon fill="#7AACCC" points="187.648,322.369 171.959,306.68 187.648,269.414 203.337,306.68 	"/>
	
		<polygon fill="none" stroke="#4D4D4D" stroke-width="7" stroke-linecap="round" stroke-linejoin="round" stroke-miterlimit="10" points="
		187.648,322.369 171.959,306.68 187.648,269.414 203.337,306.68 	"/>
	<path fill="#EFD3B6" d="M355.12,169.752c0,17.427-14.128,31.555-31.555,31.555c-17.427,0-31.555-14.128-31.555-31.555
		c0-17.428,14.128-31.555,31.555-31.555C340.992,138.197,355.12,152.324,355.12,169.752"/>
	
		<circle fill="none" stroke="#4D4D4D" stroke-width="7" stroke-linecap="round" stroke-linejoin="round" stroke-miterlimit="10" cx="323.565" cy="169.752" r="31.555"/>
	<path fill="#E6E6E6" d="M261.166,273.998c0-34.462,27.937-62.399,62.399-62.399c34.463,0,62.4,27.937,62.4,62.399
		C385.964,292.051,261.166,292.051,261.166,273.998"/>
	<path fill="none" stroke="#4D4D4D" stroke-width="7" stroke-linecap="round" stroke-linejoin="round" stroke-miterlimit="10" d="
		M261.166,273.998c0-34.462,27.937-62.399,62.399-62.399c34.463,0,62.4,27.937,62.4,62.399
		C385.964,292.051,261.166,292.051,261.166,273.998z"/>
	<path fill="#DD6966" d="M308.835,213.352l14.729,14.729l14.73-14.729c-4.723-1.144-9.655-1.753-14.73-1.753
		C318.49,211.599,313.559,212.208,308.835,213.352"/>
	<path fill="none" stroke="#4D4D4D" stroke-width="7" stroke-linecap="round" stroke-linejoin="round" stroke-miterlimit="10" d="
		M308.835,213.352l14.729,14.729l14.73-14.729c-4.723-1.144-9.655-1.753-14.73-1.753
		C318.49,211.599,313.559,212.208,308.835,213.352z"/>
	<polygon fill="#DD6966" points="323.565,280.856 307.876,265.167 323.565,227.901 339.254,265.167 	"/>
	
		<polygon fill="none" stroke="#4D4D4D" stroke-width="7" stroke-linecap="round" stroke-linejoin="round" stroke-miterlimit="10" points="
		323.565,280.856 307.876,265.167 323.565,227.901 339.254,265.167 	"/>
	<path fill="#9C968F" d="M499.322,311.409c0,18.581-78.689,33.644-175.757,33.644c-97.068,0-175.757-15.063-175.757-33.644
		s78.689-33.644,175.757-33.644C420.633,277.765,499.322,292.828,499.322,311.409"/>
	
		<ellipse fill="none" stroke="#4D4D4D" stroke-width="7" stroke-linecap="round" stroke-linejoin="round" stroke-miterlimit="10" cx="323.565" cy="311.409" rx="175.757" ry="33.644"/>
	<path fill="#EFD3B6" d="M281.603,269.563c0,17.427-14.127,31.555-31.555,31.555c-17.427,0-31.555-14.128-31.555-31.555
		s14.128-31.555,31.555-31.555C267.476,238.007,281.603,252.136,281.603,269.563"/>
	
		<circle fill="none" stroke="#4D4D4D" stroke-width="7" stroke-linecap="round" stroke-linejoin="round" stroke-miterlimit="10" cx="250.048" cy="269.563" r="31.555"/>
	<path fill="#7AD0CB" d="M187.648,373.808c0-34.462,27.937-62.399,62.399-62.399c34.463,0,62.4,27.937,62.4,62.399
		C312.447,391.861,187.648,391.861,187.648,373.808"/>
	<path fill="none" stroke="#4D4D4D" stroke-width="7" stroke-linecap="round" stroke-linejoin="round" stroke-miterlimit="10" d="
		M187.648,373.808c0-34.462,27.937-62.399,62.399-62.399c34.463,0,62.4,27.937,62.4,62.399
		C312.447,391.861,187.648,391.861,187.648,373.808z"/>
	<path fill="#EFD3B6" d="M428.637,269.563c0,17.427-14.127,31.555-31.555,31.555c-17.427,0-31.555-14.128-31.555-31.555
		s14.128-31.555,31.555-31.555C414.51,238.007,428.637,252.136,428.637,269.563"/>
	
		<circle fill="none" stroke="#4D4D4D" stroke-width="7" stroke-linecap="round" stroke-linejoin="round" stroke-miterlimit="10" cx="397.082" cy="269.563" r="31.555"/>
	<path fill="#7AD0CB" d="M334.683,373.808c0-34.462,27.937-62.399,62.399-62.399s62.4,27.937,62.4,62.399
		C459.481,391.861,334.683,391.861,334.683,373.808"/>
	<path fill="none" stroke="#4D4D4D" stroke-width="7" stroke-linecap="round" stroke-linejoin="round" stroke-miterlimit="10" d="
		M334.683,373.808c0-34.462,27.937-62.399,62.399-62.399s62.4,27.937,62.4,62.399C459.481,391.861,334.683,391.861,334.683,373.808z
		"/>
</g>
<g display="none">
	<path display="inline" fill="#EFD3B6" d="M436.742,597.942c0,12.182-9.875,22.058-22.058,22.058
		c-12.182,0-22.057-9.876-22.057-22.058s9.875-22.058,22.057-22.058C426.867,575.885,436.742,585.761,436.742,597.942"/>
	
		<circle display="inline" fill="none" stroke="#4D4D4D" stroke-width="7" stroke-linecap="round" stroke-linejoin="round" stroke-miterlimit="10" cx="414.685" cy="597.942" r="22.058"/>
	<path display="inline" fill="#C4D89B" d="M371.066,670.812c0-24.09,19.528-43.618,43.618-43.618
		c24.09,0,43.618,19.528,43.618,43.618C458.302,683.431,371.066,683.431,371.066,670.812"/>
	
		<path display="inline" fill="none" stroke="#4D4D4D" stroke-width="7" stroke-linecap="round" stroke-linejoin="round" stroke-miterlimit="10" d="
		M371.066,670.812c0-24.09,19.528-43.618,43.618-43.618c24.09,0,43.618,19.528,43.618,43.618
		C458.302,683.431,371.066,683.431,371.066,670.812z"/>
	<path display="inline" fill="#F69652" d="M404.389,628.419l10.296,10.297l10.296-10.297c-3.301-0.799-6.749-1.226-10.296-1.226
		S407.689,627.62,404.389,628.419"/>
	
		<path display="inline" fill="none" stroke="#4D4D4D" stroke-width="7" stroke-linecap="round" stroke-linejoin="round" stroke-miterlimit="10" d="
		M404.389,628.419l10.296,10.297l10.296-10.297c-3.301-0.799-6.749-1.226-10.296-1.226S407.689,627.62,404.389,628.419z"/>
	<polygon display="inline" fill="#F69652" points="414.685,675.606 403.718,664.64 414.685,638.591 425.651,664.64 	"/>
	
		<polygon display="inline" fill="none" stroke="#4D4D4D" stroke-width="7" stroke-linecap="round" stroke-linejoin="round" stroke-miterlimit="10" points="
		414.685,675.606 403.718,664.64 414.685,638.591 425.651,664.64 	"/>
	<path display="inline" fill="#EFD3B6" d="M246.727,597.942c0,12.182-9.875,22.058-22.058,22.058
		c-12.182,0-22.057-9.876-22.057-22.058s9.875-22.058,22.057-22.058C236.852,575.885,246.727,585.761,246.727,597.942"/>
	
		<circle display="inline" fill="none" stroke="#4D4D4D" stroke-width="7" stroke-linecap="round" stroke-linejoin="round" stroke-miterlimit="10" cx="224.67" cy="597.942" r="22.057"/>
	<path display="inline" fill="#C3EDF5" d="M181.051,670.812c0-24.09,19.529-43.618,43.618-43.618
		c24.09,0,43.618,19.528,43.618,43.618C268.287,683.431,181.051,683.431,181.051,670.812"/>
	
		<path display="inline" fill="none" stroke="#4D4D4D" stroke-width="7" stroke-linecap="round" stroke-linejoin="round" stroke-miterlimit="10" d="
		M181.051,670.812c0-24.09,19.529-43.618,43.618-43.618c24.09,0,43.618,19.528,43.618,43.618
		C268.287,683.431,181.051,683.431,181.051,670.812z"/>
	<path display="inline" fill="#7AACCC" d="M214.374,628.419l10.296,10.297l10.296-10.297c-3.301-0.799-6.749-1.226-10.296-1.226
		S217.674,627.62,214.374,628.419"/>
	
		<path display="inline" fill="none" stroke="#4D4D4D" stroke-width="7" stroke-linecap="round" stroke-linejoin="round" stroke-miterlimit="10" d="
		M214.374,628.419l10.296,10.297l10.296-10.297c-3.301-0.799-6.749-1.226-10.296-1.226S217.674,627.62,214.374,628.419z"/>
	<polygon display="inline" fill="#7AACCC" points="224.669,675.606 213.702,664.64 224.669,638.591 235.636,664.64 	"/>
	
		<polygon display="inline" fill="none" stroke="#4D4D4D" stroke-width="7" stroke-linecap="round" stroke-linejoin="round" stroke-miterlimit="10" points="
		224.669,675.606 213.702,664.64 224.669,638.591 235.636,664.64 	"/>
	<path display="inline" fill="#9C968F" d="M438.924,695.64c0,25.232-53.389,45.688-119.247,45.688S200.43,720.872,200.43,695.64
		s53.389-45.688,119.247-45.688S438.924,670.407,438.924,695.64"/>
	
		<ellipse display="inline" fill="none" stroke="#4D4D4D" stroke-width="7" stroke-linecap="round" stroke-linejoin="round" stroke-miterlimit="10" cx="319.677" cy="695.64" rx="119.247" ry="45.688"/>
	<path display="inline" fill="#EFD3B6" d="M341.734,685.534c0,12.183-9.875,22.058-22.057,22.058
		c-12.182,0-22.058-9.875-22.058-22.058c0-12.182,9.876-22.057,22.058-22.057C331.859,663.478,341.734,673.353,341.734,685.534"/>
	
		<circle display="inline" fill="none" stroke="#4D4D4D" stroke-width="7" stroke-linecap="round" stroke-linejoin="round" stroke-miterlimit="10" cx="319.677" cy="685.534" r="22.058"/>
	<path display="inline" fill="#E6E6E6" d="M276.059,758.404c0-24.09,19.528-43.618,43.618-43.618
		c24.09,0,43.618,19.528,43.618,43.618C363.295,771.022,276.059,771.022,276.059,758.404"/>
	
		<path display="inline" fill="none" stroke="#4D4D4D" stroke-width="7" stroke-linecap="round" stroke-linejoin="round" stroke-miterlimit="10" d="
		M276.059,758.404c0-24.09,19.528-43.618,43.618-43.618c24.09,0,43.618,19.528,43.618,43.618
		C363.295,771.022,276.059,771.022,276.059,758.404z"/>
	<rect x="444.518" y="527.366" display="inline" fill="#FFDA75" width="80.42" height="51.659"/>
	
		<rect x="444.518" y="527.366" display="inline" fill="none" stroke="#4D4D4D" stroke-width="7" stroke-linecap="round" stroke-linejoin="round" stroke-miterlimit="10" width="80.42" height="51.659"/>
	
		<polyline display="inline" fill="none" stroke="#4D4D4D" stroke-width="7" stroke-linecap="round" stroke-linejoin="round" stroke-miterlimit="10" points="
		484.728,579.025 484.728,597.942 458.303,613.465 	"/>
	<rect x="122.192" y="527.366" display="inline" fill="#F69652" width="80.42" height="51.659"/>
	
		<rect x="122.192" y="527.366" display="inline" fill="none" stroke="#4D4D4D" stroke-width="7" stroke-linecap="round" stroke-linejoin="round" stroke-miterlimit="10" width="80.42" height="51.659"/>
	
		<polyline display="inline" fill="none" stroke="#4D4D4D" stroke-width="7" stroke-linecap="round" stroke-linejoin="round" stroke-miterlimit="10" points="
		162.402,579.025 162.402,597.942 188.827,613.465 	"/>
	<rect x="374.475" y="725.1" display="inline" fill="#DD6966" width="80.42" height="51.659"/>
	
		<rect x="374.475" y="725.1" display="inline" fill="none" stroke="#4D4D4D" stroke-width="7" stroke-linecap="round" stroke-linejoin="round" stroke-miterlimit="10" width="80.42" height="51.659"/>
	
		<polyline display="inline" fill="none" stroke="#4D4D4D" stroke-width="7" stroke-linecap="round" stroke-linejoin="round" stroke-miterlimit="10" points="
		414.685,725.1 414.685,706.183 388.26,690.66 	"/>
</g>
<g display="none">
	<path display="inline" fill="#EFD3B6" d="M1155.553,629.916c0,17.428-14.128,31.555-31.555,31.555
		c-17.428,0-31.556-14.127-31.556-31.555s14.128-31.555,31.556-31.555C1141.425,598.361,1155.553,612.488,1155.553,629.916"/>
	
		<circle display="inline" fill="none" stroke="#4D4D4D" stroke-width="7" stroke-linecap="round" stroke-linejoin="round" stroke-miterlimit="10" cx="1123.998" cy="629.916" r="31.555"/>
	<path display="inline" fill="#C3EDF5" d="M1061.599,734.162c0-34.463,27.937-62.399,62.399-62.399
		c34.462,0,62.399,27.937,62.399,62.399C1186.397,752.215,1061.599,752.215,1061.599,734.162"/>
	
		<path display="inline" fill="none" stroke="#4D4D4D" stroke-width="7" stroke-linecap="round" stroke-linejoin="round" stroke-miterlimit="10" d="
		M1061.599,734.162c0-34.463,27.937-62.399,62.399-62.399c34.462,0,62.399,27.937,62.399,62.399
		C1186.397,752.215,1061.599,752.215,1061.599,734.162z"/>
	<path display="inline" fill="#7AACCC" d="M1109.269,673.516l14.729,14.729l14.73-14.729c-4.724-1.143-9.655-1.753-14.73-1.753
		C1118.923,671.763,1113.991,672.373,1109.269,673.516"/>
	
		<path display="inline" fill="none" stroke="#4D4D4D" stroke-width="7" stroke-linecap="round" stroke-linejoin="round" stroke-miterlimit="10" d="
		M1109.269,673.516l14.729,14.729l14.73-14.729c-4.724-1.143-9.655-1.753-14.73-1.753
		C1118.923,671.763,1113.991,672.373,1109.269,673.516z"/>
	<polygon display="inline" fill="#7AACCC" points="1123.998,741.021 1108.309,725.332 1123.998,688.066 1139.686,725.332 	"/>
	
		<polygon display="inline" fill="none" stroke="#4D4D4D" stroke-width="7" stroke-linecap="round" stroke-linejoin="round" stroke-miterlimit="10" points="
		1123.998,741.021 1108.309,725.332 1123.998,688.066 1139.686,725.332 	"/>
	<path display="inline" fill="#EFD3B6" d="M1008.838,629.916c0,17.428-14.128,31.555-31.555,31.555
		c-17.428,0-31.555-14.127-31.555-31.555s14.127-31.555,31.555-31.555C994.71,598.361,1008.838,612.488,1008.838,629.916"/>
	
		<circle display="inline" fill="none" stroke="#4D4D4D" stroke-width="7" stroke-linecap="round" stroke-linejoin="round" stroke-miterlimit="10" cx="977.283" cy="629.916" r="31.555"/>
	<path display="inline" fill="#E6E6E6" d="M914.884,734.162c0-34.463,27.937-62.399,62.399-62.399
		c34.462,0,62.399,27.937,62.399,62.399C1039.683,752.215,914.884,752.215,914.884,734.162"/>
	
		<path display="inline" fill="none" stroke="#4D4D4D" stroke-width="7" stroke-linecap="round" stroke-linejoin="round" stroke-miterlimit="10" d="
		M914.884,734.162c0-34.463,27.937-62.399,62.399-62.399c34.462,0,62.399,27.937,62.399,62.399
		C1039.683,752.215,914.884,752.215,914.884,734.162z"/>
	<path display="inline" fill="#DD6966" d="M962.554,673.516l14.729,14.729l14.73-14.729c-4.724-1.143-9.655-1.753-14.73-1.753
		C972.208,671.763,967.277,672.373,962.554,673.516"/>
	
		<path display="inline" fill="none" stroke="#4D4D4D" stroke-width="7" stroke-linecap="round" stroke-linejoin="round" stroke-miterlimit="10" d="
		M962.554,673.516l14.729,14.729l14.73-14.729c-4.724-1.143-9.655-1.753-14.73-1.753
		C972.208,671.763,967.277,672.373,962.554,673.516z"/>
	<polygon display="inline" fill="#DD6966" points="977.283,741.021 961.594,725.332 977.283,688.066 992.973,725.332 	"/>
	
		<polygon display="inline" fill="none" stroke="#4D4D4D" stroke-width="7" stroke-linecap="round" stroke-linejoin="round" stroke-miterlimit="10" points="
		977.283,741.021 961.594,725.332 977.283,688.066 992.973,725.332 	"/>
	<rect x="1151.388" y="532.075" display="inline" fill="#F69652" width="80.421" height="51.66"/>
	
		<rect x="1151.388" y="532.075" display="inline" fill="none" stroke="#4D4D4D" stroke-width="7" stroke-linecap="round" stroke-linejoin="round" stroke-miterlimit="10" width="80.421" height="51.66"/>
	
		<polyline display="inline" fill="none" stroke="#4D4D4D" stroke-width="7" stroke-linecap="round" stroke-linejoin="round" stroke-miterlimit="10" points="
		1191.598,583.735 1191.598,602.652 1165.173,618.175 	"/>
	<rect x="858.528" y="555.313" display="inline" fill="#DD6966" width="80.42" height="51.658"/>
	
		<rect x="858.528" y="555.313" display="inline" fill="none" stroke="#4D4D4D" stroke-width="7" stroke-linecap="round" stroke-linejoin="round" stroke-miterlimit="10" width="80.42" height="51.658"/>
	
		<polyline display="inline" fill="none" stroke="#4D4D4D" stroke-width="7" stroke-linecap="round" stroke-linejoin="round" stroke-miterlimit="10" points="
		898.738,606.971 898.738,625.889 925.163,641.41 	"/>
	<path display="inline" fill="#9C968F" d="M1194.339,772.05H891.541c-12.901,0-23.359-10.458-23.359-23.359
		c0-12.9,10.458-23.358,23.359-23.358h302.798c12.899,0,23.358,10.458,23.358,23.358
		C1217.697,761.592,1207.238,772.05,1194.339,772.05"/>
	
		<path display="inline" fill="none" stroke="#4D4D4D" stroke-width="7" stroke-linecap="round" stroke-linejoin="round" stroke-miterlimit="10" d="
		M1194.339,772.05H891.541c-12.901,0-23.359-10.458-23.359-23.359c0-12.9,10.458-23.358,23.359-23.358h302.798
		c12.899,0,23.358,10.458,23.358,23.358C1217.697,761.592,1207.238,772.05,1194.339,772.05z"/>
</g>
<g display="none">
	<defs>
		<path id="SVGID_3_" d="M576.466,603.753c0,40.192,32.582,72.775,72.776,72.775c40.192,0,72.775-32.583,72.775-72.775
			c0-40.194-32.583-72.776-72.775-72.776C609.048,530.977,576.466,563.559,576.466,603.753"/>
	</defs>
	<clipPath id="SVGID_4_" display="inline">
		<use xlink:href="#SVGID_3_"  overflow="visible"/>
	</clipPath>
	<path display="inline" clip-path="url(#SVGID_4_)" fill="#EFD3B6" d="M674.851,580.938c0,14.144-11.465,25.609-25.609,25.609
		c-14.143,0-25.609-11.466-25.609-25.609s11.466-25.609,25.609-25.609C663.386,555.328,674.851,566.794,674.851,580.938"/>
	
		<circle display="inline" clip-path="url(#SVGID_4_)" fill="none" stroke="#4D4D4D" stroke-width="7" stroke-linecap="round" stroke-linejoin="round" stroke-miterlimit="10" cx="649.242" cy="580.938" r="25.609"/>
	<path display="inline" clip-path="url(#SVGID_4_)" fill="#E6E6E6" d="M598.601,665.54c0-27.968,22.673-50.642,50.642-50.642
		c27.968,0,50.641,22.674,50.641,50.642C699.884,680.191,598.601,680.191,598.601,665.54"/>
	
		<path display="inline" clip-path="url(#SVGID_4_)" fill="none" stroke="#4D4D4D" stroke-width="7" stroke-linecap="round" stroke-linejoin="round" stroke-miterlimit="10" d="
		M598.601,665.54c0-27.968,22.673-50.642,50.642-50.642c27.968,0,50.641,22.674,50.641,50.642
		C699.884,680.191,598.601,680.191,598.601,665.54z"/>
	<path display="inline" clip-path="url(#SVGID_4_)" fill="#DD6966" d="M637.288,616.322l11.954,11.954l11.954-11.954
		c-3.833-0.928-7.836-1.424-11.954-1.424C645.123,614.898,641.121,615.395,637.288,616.322"/>
	
		<path display="inline" clip-path="url(#SVGID_4_)" fill="none" stroke="#4D4D4D" stroke-width="7" stroke-linecap="round" stroke-linejoin="round" stroke-miterlimit="10" d="
		M637.288,616.322l11.954,11.954l11.954-11.954c-3.833-0.928-7.836-1.424-11.954-1.424
		C645.123,614.898,641.121,615.395,637.288,616.322z"/>
	<polygon display="inline" clip-path="url(#SVGID_4_)" fill="#DD6966" points="649.242,671.107 636.509,658.374 649.242,628.131 
		661.975,658.374 	"/>
	
		<polygon display="inline" clip-path="url(#SVGID_4_)" fill="none" stroke="#4D4D4D" stroke-width="7" stroke-linecap="round" stroke-linejoin="round" stroke-miterlimit="10" points="
		649.242,671.107 636.509,658.374 649.242,628.131 661.975,658.374 	"/>
</g>
<g display="none">
	<defs>
		<rect id="SVGID_5_" x="-23" y="-27" width="1400" height="980"/>
	</defs>
	<clipPath id="SVGID_6_" display="inline">
		<use xlink:href="#SVGID_5_"  overflow="visible"/>
	</clipPath>
	<path display="inline" clip-path="url(#SVGID_6_)" fill="#E6E6E6" d="M649.242,691.183c-48.21,0-87.431-39.221-87.431-87.431
		c0-48.209,39.221-87.431,87.431-87.431s87.431,39.222,87.431,87.431C736.673,651.962,697.452,691.183,649.242,691.183
		 M649.242,530.977c-40.193,0-72.776,32.583-72.776,72.776c0,40.192,32.583,72.775,72.776,72.775
		c40.193,0,72.776-32.583,72.776-72.775C722.019,563.56,689.436,530.977,649.242,530.977"/>
	
		<path display="inline" clip-path="url(#SVGID_6_)" fill="none" stroke="#4D4D4D" stroke-width="7" stroke-linecap="round" stroke-linejoin="round" stroke-miterlimit="10" d="
		M649.242,691.183c-48.21,0-87.431-39.221-87.431-87.431c0-48.209,39.221-87.431,87.431-87.431s87.431,39.222,87.431,87.431
		C736.673,651.962,697.452,691.183,649.242,691.183z M649.242,530.977c-40.193,0-72.776,32.583-72.776,72.776
		c0,40.192,32.583,72.775,72.776,72.775c40.193,0,72.776-32.583,72.776-72.775C722.019,563.56,689.436,530.977,649.242,530.977z"/>
</g>
</svg>
