<?xml version="1.0" encoding="utf-8"?>
<!-- Generator: Adobe Illustrator 16.0.0, SVG Export Plug-In . SVG Version: 6.00 Build 0)  -->
<!DOCTYPE svg PUBLIC "-//W3C//DTD SVG 1.1//EN" "http://www.w3.org/Graphics/SVG/1.1/DTD/svg11.dtd" [
	<!ENTITY ns_extend "http://ns.adobe.com/Extensibility/1.0/">
	<!ENTITY ns_ai "http://ns.adobe.com/AdobeIllustrator/10.0/">
	<!ENTITY ns_graphs "http://ns.adobe.com/Graphs/1.0/">
	<!ENTITY ns_vars "http://ns.adobe.com/Variables/1.0/">
	<!ENTITY ns_imrep "http://ns.adobe.com/ImageReplacement/1.0/">
	<!ENTITY ns_sfw "http://ns.adobe.com/SaveForWeb/1.0/">
	<!ENTITY ns_custom "http://ns.adobe.com/GenericCustomNamespace/1.0/">
	<!ENTITY ns_adobe_xpath "http://ns.adobe.com/XPath/1.0/">
]>
<svg version="1.1" id="Layer_1" xmlns:x="&ns_extend;" xmlns:i="&ns_ai;" xmlns:graph="&ns_graphs;"
	 xmlns="http://www.w3.org/2000/svg" xmlns:xlink="http://www.w3.org/1999/xlink" x="0px" y="0px" width="672px" height="508px"
	 viewBox="-34.5 -11.5 672 508" enable-background="new -34.5 -11.5 672 508" xml:space="preserve">
<metadata>
	<sfw  xmlns="&ns_sfw;">
		<slices></slices>
		<sliceSourceBounds  y="-564.684" x="-202" width="1463.068" height="1399.959" bottomLeftOrigin="true"></sliceSourceBounds>
	</sfw>
</metadata>
<g display="none">
	<g display="inline">
		<g>
			<defs>
				<rect id="SVGID_1_" x="-50" y="-431" width="1400" height="980"/>
			</defs>
			<clipPath id="SVGID_2_">
				<use xlink:href="#SVGID_1_"  overflow="visible"/>
			</clipPath>
			<path clip-path="url(#SVGID_2_)" fill="#A6C8DD" d="M557.4,15.925v-264.723c0-9.392,7.611-17.005,17.004-17.005h192.295
				c9.392,0,17.005,7.613,17.005,17.005V15.925c0,9.391-7.613,17.004-17.005,17.004H574.404
				C565.013,32.929,557.4,25.316,557.4,15.925"/>
		</g>
	</g>
	<g display="inline">
		<g>
			<defs>
				<rect id="SVGID_3_" x="-50" y="-431" width="1400" height="980"/>
			</defs>
			<clipPath id="SVGID_4_">
				<use xlink:href="#SVGID_3_"  overflow="visible"/>
			</clipPath>
			
				<path clip-path="url(#SVGID_4_)" fill="none" stroke="#4D4D4D" stroke-width="7" stroke-linecap="round" stroke-linejoin="round" stroke-miterlimit="10" d="
				M557.4,15.925v-264.723c0-9.392,7.611-17.005,17.004-17.005h192.295c9.392,0,17.005,7.613,17.005,17.005V15.925
				c0,9.391-7.613,17.004-17.005,17.004H574.404C565.013,32.929,557.4,25.316,557.4,15.925z"/>
		</g>
	</g>
	<g display="inline">
		<g>
			<defs>
				<rect id="SVGID_5_" x="-50" y="-431" width="1400" height="980"/>
			</defs>
			<clipPath id="SVGID_6_">
				<use xlink:href="#SVGID_5_"  overflow="visible"/>
			</clipPath>
			<path clip-path="url(#SVGID_6_)" fill="#EFD3B6" d="M694.57-195.409c0,13.265-10.753,24.018-24.021,24.018
				c-13.264,0-24.017-10.753-24.017-24.018c0-13.265,10.753-24.018,24.017-24.018C683.817-219.427,694.57-208.674,694.57-195.409"/>
		</g>
	</g>
	<g display="inline">
		<g>
			<defs>
				<rect id="SVGID_7_" x="-50" y="-431" width="1400" height="980"/>
			</defs>
			<clipPath id="SVGID_8_">
				<use xlink:href="#SVGID_7_"  overflow="visible"/>
			</clipPath>
			
				<circle clip-path="url(#SVGID_8_)" fill="none" stroke="#4D4D4D" stroke-width="7" stroke-linecap="round" stroke-linejoin="round" stroke-miterlimit="10" cx="670.552" cy="-195.409" r="24.018"/>
		</g>
	</g>
	<g display="inline">
		<g>
			<defs>
				<rect id="SVGID_9_" x="-50" y="-431" width="1400" height="980"/>
			</defs>
			<clipPath id="SVGID_10_">
				<use xlink:href="#SVGID_9_"  overflow="visible"/>
			</clipPath>
			<path clip-path="url(#SVGID_10_)" fill="#E6E6E6" d="M623.057-116.063c0-26.231,21.266-47.495,47.495-47.495
				c26.231,0,47.496,21.264,47.496,47.495C718.048-102.321,623.057-102.321,623.057-116.063"/>
		</g>
	</g>
	<g display="inline">
		<g>
			<defs>
				<rect id="SVGID_11_" x="-50" y="-431" width="1400" height="980"/>
			</defs>
			<clipPath id="SVGID_12_">
				<use xlink:href="#SVGID_11_"  overflow="visible"/>
			</clipPath>
			
				<path clip-path="url(#SVGID_12_)" fill="none" stroke="#4D4D4D" stroke-width="7" stroke-linecap="round" stroke-linejoin="round" stroke-miterlimit="10" d="
				M623.057-116.063c0-26.231,21.266-47.495,47.495-47.495c26.231,0,47.496,21.264,47.496,47.495
				C718.048-102.321,623.057-102.321,623.057-116.063z"/>
		</g>
	</g>
	<g display="inline">
		<g>
			<defs>
				<rect id="SVGID_13_" x="-50" y="-431" width="1400" height="980"/>
			</defs>
			<clipPath id="SVGID_14_">
				<use xlink:href="#SVGID_13_"  overflow="visible"/>
			</clipPath>
			<path clip-path="url(#SVGID_14_)" fill="#DD6966" d="M659.341-162.223l11.211,11.211l11.212-11.211
				c-3.596-0.87-7.349-1.334-11.212-1.334C666.689-163.557,662.938-163.093,659.341-162.223"/>
		</g>
	</g>
	<g display="inline">
		<g>
			<defs>
				<rect id="SVGID_15_" x="-50" y="-431" width="1400" height="980"/>
			</defs>
			<clipPath id="SVGID_16_">
				<use xlink:href="#SVGID_15_"  overflow="visible"/>
			</clipPath>
			
				<path clip-path="url(#SVGID_16_)" fill="none" stroke="#4D4D4D" stroke-width="7" stroke-linecap="round" stroke-linejoin="round" stroke-miterlimit="10" d="
				M659.341-162.223l11.211,11.211l11.212-11.211c-3.596-0.87-7.349-1.334-11.212-1.334
				C666.689-163.557,662.938-163.093,659.341-162.223z"/>
		</g>
	</g>
	<g display="inline">
		<g>
			<defs>
				<rect id="SVGID_17_" x="-50" y="-431" width="1400" height="980"/>
			</defs>
			<clipPath id="SVGID_18_">
				<use xlink:href="#SVGID_17_"  overflow="visible"/>
			</clipPath>
			<polygon clip-path="url(#SVGID_18_)" fill="#DD6966" points="670.552,-110.841 658.61,-122.783 670.552,-151.148 
				682.494,-122.783 			"/>
		</g>
	</g>
	<g display="inline">
		<g>
			<defs>
				<rect id="SVGID_19_" x="-50" y="-431" width="1400" height="980"/>
			</defs>
			<clipPath id="SVGID_20_">
				<use xlink:href="#SVGID_19_"  overflow="visible"/>
			</clipPath>
			
				<polygon clip-path="url(#SVGID_20_)" fill="none" stroke="#4D4D4D" stroke-width="7" stroke-linecap="round" stroke-linejoin="round" stroke-miterlimit="10" points="
				670.552,-110.841 658.61,-122.783 670.552,-151.148 682.494,-122.783 			"/>
		</g>
	</g>
	<g display="inline">
		<g>
			<defs>
				<rect id="SVGID_21_" x="-50" y="-431" width="1400" height="980"/>
			</defs>
			<clipPath id="SVGID_22_">
				<use xlink:href="#SVGID_21_"  overflow="visible"/>
			</clipPath>
			<path clip-path="url(#SVGID_22_)" fill="#666666" d="M733.088-50.824H608.016c-4.816,0-8.723-3.906-8.723-8.724
				c0-4.818,3.905-8.724,8.723-8.724h125.072c4.818,0,8.725,3.906,8.725,8.724C741.813-54.73,737.906-50.824,733.088-50.824"/>
		</g>
	</g>
	<g display="inline">
		<g>
			<defs>
				<rect id="SVGID_23_" x="-50" y="-431" width="1400" height="980"/>
			</defs>
			<clipPath id="SVGID_24_">
				<use xlink:href="#SVGID_23_"  overflow="visible"/>
			</clipPath>
			
				<path clip-path="url(#SVGID_24_)" fill="none" stroke="#4D4D4D" stroke-width="7" stroke-linecap="round" stroke-linejoin="round" stroke-miterlimit="10" d="
				M733.088-50.824H608.016c-4.816,0-8.723-3.906-8.723-8.724c0-4.818,3.905-8.724,8.723-8.724h125.072
				c4.818,0,8.725,3.906,8.725,8.724C741.813-54.73,737.906-50.824,733.088-50.824z"/>
		</g>
	</g>
	<g display="inline">
		<g>
			<defs>
				<rect id="SVGID_25_" x="-50" y="-431" width="1400" height="980"/>
			</defs>
			<clipPath id="SVGID_26_">
				<use xlink:href="#SVGID_25_"  overflow="visible"/>
			</clipPath>
			<path clip-path="url(#SVGID_26_)" fill="#666666" d="M733.088-23.702H608.016c-4.816,0-8.723-3.906-8.723-8.724
				c0-4.818,3.905-8.724,8.723-8.724h125.072c4.818,0,8.725,3.906,8.725,8.724C741.813-27.608,737.906-23.702,733.088-23.702"/>
		</g>
	</g>
	<g display="inline">
		<g>
			<defs>
				<rect id="SVGID_27_" x="-50" y="-431" width="1400" height="980"/>
			</defs>
			<clipPath id="SVGID_28_">
				<use xlink:href="#SVGID_27_"  overflow="visible"/>
			</clipPath>
			
				<path clip-path="url(#SVGID_28_)" fill="none" stroke="#4D4D4D" stroke-width="7" stroke-linecap="round" stroke-linejoin="round" stroke-miterlimit="10" d="
				M733.088-23.702H608.016c-4.816,0-8.723-3.906-8.723-8.724c0-4.818,3.905-8.724,8.723-8.724h125.072
				c4.818,0,8.725,3.906,8.725,8.724C741.813-27.608,737.906-23.702,733.088-23.702z"/>
		</g>
	</g>
	<g display="inline">
		<g>
			<defs>
				<rect id="SVGID_29_" x="-50" y="-431" width="1400" height="980"/>
			</defs>
			<clipPath id="SVGID_30_">
				<use xlink:href="#SVGID_29_"  overflow="visible"/>
			</clipPath>
			<path clip-path="url(#SVGID_30_)" fill="#666666" d="M733.088,3.419H608.016c-4.816,0-8.723-3.906-8.723-8.724
				c0-4.818,3.905-8.724,8.723-8.724h125.072c4.818,0,8.725,3.906,8.725,8.724C741.813-0.486,737.906,3.419,733.088,3.419"/>
		</g>
	</g>
	<g display="inline">
		<g>
			<defs>
				<rect id="SVGID_31_" x="-50" y="-431" width="1400" height="980"/>
			</defs>
			<clipPath id="SVGID_32_">
				<use xlink:href="#SVGID_31_"  overflow="visible"/>
			</clipPath>
			
				<path clip-path="url(#SVGID_32_)" fill="none" stroke="#4D4D4D" stroke-width="7" stroke-linecap="round" stroke-linejoin="round" stroke-miterlimit="10" d="
				M733.088,3.419H608.016c-4.816,0-8.723-3.906-8.723-8.724c0-4.818,3.905-8.724,8.723-8.724h125.072
				c4.818,0,8.725,3.906,8.725,8.724C741.813-0.486,737.906,3.419,733.088,3.419z"/>
		</g>
	</g>
	<g display="inline">
		<g>
			<defs>
				<rect id="SVGID_33_" x="-50" y="-431" width="1400" height="980"/>
			</defs>
			<clipPath id="SVGID_34_">
				<use xlink:href="#SVGID_33_"  overflow="visible"/>
			</clipPath>
			<path clip-path="url(#SVGID_34_)" fill="#F2F2F2" d="M1170.818-49.617H865.518c-9.803,0-17.752-7.948-17.752-17.752v-180.682
				c0-9.804,7.949-17.752,17.752-17.752h305.303c9.805,0,17.752,7.948,17.752,17.752v180.682
				C1188.57-57.565,1180.623-49.617,1170.818-49.617"/>
		</g>
	</g>
	<g display="inline">
		<g>
			<defs>
				<rect id="SVGID_35_" x="-50" y="-431" width="1400" height="980"/>
			</defs>
			<clipPath id="SVGID_36_">
				<use xlink:href="#SVGID_35_"  overflow="visible"/>
			</clipPath>
			
				<path clip-path="url(#SVGID_36_)" fill="none" stroke="#4D4D4D" stroke-width="7" stroke-linecap="round" stroke-linejoin="round" stroke-miterlimit="10" d="
				M1170.818-49.617H865.518c-9.803,0-17.752-7.948-17.752-17.752v-180.682c0-9.804,7.949-17.752,17.752-17.752h305.303
				c9.805,0,17.752,7.948,17.752,17.752v180.682C1188.57-57.565,1180.623-49.617,1170.818-49.617z"/>
		</g>
	</g>
	<g display="inline">
		<g>
			<defs>
				<rect id="SVGID_37_" x="-50" y="-431" width="1400" height="980"/>
			</defs>
			<clipPath id="SVGID_38_">
				<use xlink:href="#SVGID_37_"  overflow="visible"/>
			</clipPath>
			<path clip-path="url(#SVGID_38_)" fill="#EFD3B6" d="M959.443-162.375c0,12.672-10.271,22.944-22.944,22.944
				c-12.671,0-22.943-10.272-22.943-22.944c0-12.671,10.272-22.944,22.943-22.944C949.172-185.318,959.443-175.045,959.443-162.375"
				/>
		</g>
	</g>
	<g display="inline">
		<g>
			<defs>
				<rect id="SVGID_39_" x="-50" y="-431" width="1400" height="980"/>
			</defs>
			<clipPath id="SVGID_40_">
				<use xlink:href="#SVGID_39_"  overflow="visible"/>
			</clipPath>
			
				<circle clip-path="url(#SVGID_40_)" fill="none" stroke="#4D4D4D" stroke-width="7" stroke-linecap="round" stroke-linejoin="round" stroke-miterlimit="10" cx="936.5" cy="-162.375" r="22.944"/>
		</g>
	</g>
	<g display="inline">
		<g>
			<defs>
				<rect id="SVGID_41_" x="-50" y="-431" width="1400" height="980"/>
			</defs>
			<clipPath id="SVGID_42_">
				<use xlink:href="#SVGID_41_"  overflow="visible"/>
			</clipPath>
			<path clip-path="url(#SVGID_42_)" fill="#E6E6E6" d="M891.128-86.575c0-25.059,20.313-45.372,45.371-45.372
				c25.059,0,45.372,20.313,45.372,45.372C981.871-73.449,891.128-73.449,891.128-86.575"/>
		</g>
	</g>
	<g display="inline">
		<g>
			<defs>
				<rect id="SVGID_43_" x="-50" y="-431" width="1400" height="980"/>
			</defs>
			<clipPath id="SVGID_44_">
				<use xlink:href="#SVGID_43_"  overflow="visible"/>
			</clipPath>
			
				<path clip-path="url(#SVGID_44_)" fill="none" stroke="#4D4D4D" stroke-width="7" stroke-linecap="round" stroke-linejoin="round" stroke-miterlimit="10" d="
				M891.128-86.575c0-25.059,20.313-45.372,45.371-45.372c25.059,0,45.372,20.313,45.372,45.372
				C981.871-73.449,891.128-73.449,891.128-86.575z"/>
		</g>
	</g>
	<g display="inline">
		<g>
			<defs>
				<rect id="SVGID_45_" x="-50" y="-431" width="1400" height="980"/>
			</defs>
			<clipPath id="SVGID_46_">
				<use xlink:href="#SVGID_45_"  overflow="visible"/>
			</clipPath>
			<path clip-path="url(#SVGID_46_)" fill="#DD6966" d="M925.789-130.672l10.71,10.71l10.711-10.71
				c-3.435-0.831-7.021-1.275-10.711-1.275C932.811-131.947,929.225-131.503,925.789-130.672"/>
		</g>
	</g>
	<g display="inline">
		<g>
			<defs>
				<rect id="SVGID_47_" x="-50" y="-431" width="1400" height="980"/>
			</defs>
			<clipPath id="SVGID_48_">
				<use xlink:href="#SVGID_47_"  overflow="visible"/>
			</clipPath>
			
				<path clip-path="url(#SVGID_48_)" fill="none" stroke="#4D4D4D" stroke-width="7" stroke-linecap="round" stroke-linejoin="round" stroke-miterlimit="10" d="
				M925.789-130.672l10.71,10.71l10.711-10.71c-3.435-0.831-7.021-1.275-10.711-1.275
				C932.811-131.947,929.225-131.503,925.789-130.672z"/>
		</g>
	</g>
	<g display="inline">
		<g>
			<defs>
				<rect id="SVGID_49_" x="-50" y="-431" width="1400" height="980"/>
			</defs>
			<clipPath id="SVGID_50_">
				<use xlink:href="#SVGID_49_"  overflow="visible"/>
			</clipPath>
			<polygon clip-path="url(#SVGID_50_)" fill="#DD6966" points="936.499,-81.588 925.092,-92.996 936.499,-120.092 947.907,-92.996 
							"/>
		</g>
	</g>
	<g display="inline">
		<g>
			<defs>
				<rect id="SVGID_51_" x="-50" y="-431" width="1400" height="980"/>
			</defs>
			<clipPath id="SVGID_52_">
				<use xlink:href="#SVGID_51_"  overflow="visible"/>
			</clipPath>
			
				<polygon clip-path="url(#SVGID_52_)" fill="none" stroke="#4D4D4D" stroke-width="7" stroke-linecap="round" stroke-linejoin="round" stroke-miterlimit="10" points="
				936.499,-81.588 925.092,-92.996 936.499,-120.092 947.907,-92.996 			"/>
		</g>
	</g>
	<g display="inline">
		<g>
			<defs>
				<rect id="SVGID_53_" x="-50" y="-431" width="1400" height="980"/>
			</defs>
			<clipPath id="SVGID_54_">
				<use xlink:href="#SVGID_53_"  overflow="visible"/>
			</clipPath>
			<path clip-path="url(#SVGID_54_)" fill="#666666" d="M1145.98-168.579h-119.479c-4.604,0-8.334-3.731-8.334-8.334
				s3.731-8.334,8.334-8.334h119.479c4.604,0,8.334,3.731,8.334,8.334S1150.584-168.579,1145.98-168.579"/>
		</g>
	</g>
	<g display="inline">
		<g>
			<defs>
				<rect id="SVGID_55_" x="-50" y="-431" width="1400" height="980"/>
			</defs>
			<clipPath id="SVGID_56_">
				<use xlink:href="#SVGID_55_"  overflow="visible"/>
			</clipPath>
			
				<path clip-path="url(#SVGID_56_)" fill="none" stroke="#4D4D4D" stroke-width="7" stroke-linecap="round" stroke-linejoin="round" stroke-miterlimit="10" d="
				M1145.98-168.579h-119.479c-4.604,0-8.334-3.731-8.334-8.334s3.731-8.334,8.334-8.334h119.479c4.604,0,8.334,3.731,8.334,8.334
				S1150.584-168.579,1145.98-168.579z"/>
		</g>
	</g>
	<g display="inline">
		<g>
			<defs>
				<rect id="SVGID_57_" x="-50" y="-431" width="1400" height="980"/>
			</defs>
			<clipPath id="SVGID_58_">
				<use xlink:href="#SVGID_57_"  overflow="visible"/>
			</clipPath>
			<path clip-path="url(#SVGID_58_)" fill="#666666" d="M1145.98-122.691h-119.479c-4.604,0-8.334-3.731-8.334-8.333
				c0-4.604,3.731-8.334,8.334-8.334h119.479c4.604,0,8.334,3.73,8.334,8.334C1154.314-126.422,1150.584-122.691,1145.98-122.691"/>
		</g>
	</g>
	<g display="inline">
		<g>
			<defs>
				<rect id="SVGID_59_" x="-50" y="-431" width="1400" height="980"/>
			</defs>
			<clipPath id="SVGID_60_">
				<use xlink:href="#SVGID_59_"  overflow="visible"/>
			</clipPath>
			
				<path clip-path="url(#SVGID_60_)" fill="none" stroke="#4D4D4D" stroke-width="7" stroke-linecap="round" stroke-linejoin="round" stroke-miterlimit="10" d="
				M1145.98-122.691h-119.479c-4.604,0-8.334-3.731-8.334-8.333c0-4.604,3.731-8.334,8.334-8.334h119.479
				c4.604,0,8.334,3.73,8.334,8.334C1154.314-126.422,1150.584-122.691,1145.98-122.691z"/>
		</g>
	</g>
	<g display="inline">
		<g>
			<defs>
				<rect id="SVGID_61_" x="-50" y="-431" width="1400" height="980"/>
			</defs>
			<clipPath id="SVGID_62_">
				<use xlink:href="#SVGID_61_"  overflow="visible"/>
			</clipPath>
			<path clip-path="url(#SVGID_62_)" fill="#666666" d="M1145.98-76.802h-119.479c-4.604,0-8.334-3.731-8.334-8.334
				c0-4.604,3.731-8.334,8.334-8.334h119.479c4.604,0,8.334,3.729,8.334,8.334C1154.314-80.533,1150.584-76.802,1145.98-76.802"/>
		</g>
	</g>
	<g display="inline">
		<g>
			<defs>
				<rect id="SVGID_63_" x="-50" y="-431" width="1400" height="980"/>
			</defs>
			<clipPath id="SVGID_64_">
				<use xlink:href="#SVGID_63_"  overflow="visible"/>
			</clipPath>
			
				<path clip-path="url(#SVGID_64_)" fill="none" stroke="#4D4D4D" stroke-width="7" stroke-linecap="round" stroke-linejoin="round" stroke-miterlimit="10" d="
				M1145.98-76.802h-119.479c-4.604,0-8.334-3.731-8.334-8.334c0-4.604,3.731-8.334,8.334-8.334h119.479
				c4.604,0,8.334,3.729,8.334,8.334C1154.314-80.533,1150.584-76.802,1145.98-76.802z"/>
		</g>
	</g>
	<g display="inline">
		<g>
			<defs>
				<rect id="SVGID_65_" x="-50" y="-431" width="1400" height="980"/>
			</defs>
			<clipPath id="SVGID_66_">
				<use xlink:href="#SVGID_65_"  overflow="visible"/>
			</clipPath>
			<path clip-path="url(#SVGID_66_)" fill="#DD6966" d="M1144.529-215.353H891.808c-7.718,0-13.974-6.256-13.974-13.974
				c0-7.717,6.256-13.973,13.974-13.973h252.724c7.717,0,13.974,6.256,13.974,13.973
				C1158.503-221.608,1152.246-215.353,1144.529-215.353"/>
		</g>
	</g>
	<g display="inline">
		<g>
			<defs>
				<rect id="SVGID_67_" x="-50" y="-431" width="1400" height="980"/>
			</defs>
			<clipPath id="SVGID_68_">
				<use xlink:href="#SVGID_67_"  overflow="visible"/>
			</clipPath>
			
				<path clip-path="url(#SVGID_68_)" fill="none" stroke="#4D4D4D" stroke-width="7" stroke-linecap="round" stroke-linejoin="round" stroke-miterlimit="10" d="
				M1144.529-215.353H891.808c-7.718,0-13.974-6.256-13.974-13.974c0-7.717,6.256-13.973,13.974-13.973h252.724
				c7.717,0,13.974,6.256,13.974,13.973C1158.503-221.608,1152.246-215.353,1144.529-215.353z"/>
		</g>
	</g>
	<g display="inline">
		<g>
			<defs>
				<rect id="SVGID_69_" x="433.097" y="-472.275" width="979.972" height="1399.959"/>
			</defs>
			<clipPath id="SVGID_70_">
				<use xlink:href="#SVGID_69_"  overflow="visible"/>
			</clipPath>
			
				<rect x="690.91" y="248.563" transform="matrix(0.7071 -0.7071 0.7071 0.7071 7.7449 578.472)" clip-path="url(#SVGID_70_)" fill="#B3B3B3" width="22.54" height="62.648"/>
		</g>
	</g>
	<g display="inline">
		<g>
			<defs>
				<rect id="SVGID_71_" x="433.097" y="-472.275" width="979.972" height="1399.959"/>
			</defs>
			<clipPath id="SVGID_72_">
				<use xlink:href="#SVGID_71_"  overflow="visible"/>
			</clipPath>
			
				<rect x="690.91" y="248.563" transform="matrix(0.7071 -0.7071 0.7071 0.7071 7.7449 578.472)" clip-path="url(#SVGID_72_)" fill="none" stroke="#4D4D4D" stroke-width="7" stroke-linecap="round" stroke-linejoin="round" stroke-miterlimit="10" width="22.54" height="62.648"/>
		</g>
	</g>
	<g display="inline">
		<g>
			<defs>
				<rect id="SVGID_73_" x="-50" y="-431" width="1400" height="980"/>
			</defs>
			<clipPath id="SVGID_74_">
				<use xlink:href="#SVGID_73_"  overflow="visible"/>
			</clipPath>
			<path clip-path="url(#SVGID_74_)" fill="#666666" d="M799.259,376.769L799.259,376.769c-9.38,9.382-24.587,9.382-33.966,0
				l-57.784-57.782c-9.379-9.379-9.379-24.588,0-33.967l0,0c9.379-9.379,24.586-9.379,33.965,0l57.785,57.784
				C808.638,352.183,808.638,367.39,799.259,376.769"/>
		</g>
	</g>
	<g display="inline">
		<g>
			<defs>
				<rect id="SVGID_75_" x="-50" y="-431" width="1400" height="980"/>
			</defs>
			<clipPath id="SVGID_76_">
				<use xlink:href="#SVGID_75_"  overflow="visible"/>
			</clipPath>
			
				<path clip-path="url(#SVGID_76_)" fill="none" stroke="#4D4D4D" stroke-width="7" stroke-linecap="round" stroke-linejoin="round" stroke-miterlimit="10" d="
				M799.259,376.769L799.259,376.769c-9.38,9.382-24.587,9.382-33.966,0l-57.784-57.782c-9.379-9.379-9.379-24.588,0-33.967l0,0
				c9.379-9.379,24.586-9.379,33.965,0l57.785,57.784C808.638,352.183,808.638,367.39,799.259,376.769z"/>
		</g>
	</g>
	<g display="inline">
		<g>
			<defs>
				<rect id="SVGID_77_" x="-50" y="-431" width="1400" height="980"/>
			</defs>
			<clipPath id="SVGID_78_">
				<use xlink:href="#SVGID_77_"  overflow="visible"/>
			</clipPath>
			<path clip-path="url(#SVGID_78_)" fill="#C3EDF5" d="M622.242,126.977c-40.193,0-72.776,32.583-72.776,72.776
				c0,40.192,32.583,72.774,72.776,72.774c40.191,0,72.774-32.583,72.774-72.774C695.019,159.56,662.436,126.977,622.242,126.977"/>
		</g>
	</g>
</g>
<g display="none">
	<path display="inline" fill="#EFD3B6" d="M464.036-192.736c0,17.427-14.127,31.555-31.555,31.555
		c-17.429,0-31.557-14.128-31.557-31.555c0-17.427,14.128-31.555,31.557-31.555C449.909-224.291,464.036-210.163,464.036-192.736"/>
	
		<circle display="inline" fill="none" stroke="#4D4D4D" stroke-width="7" stroke-linecap="round" stroke-linejoin="round" stroke-miterlimit="10" cx="432.481" cy="-192.736" r="31.555"/>
	<path display="inline" fill="#C4D89B" d="M370.082-88.49c0-34.462,27.937-62.399,62.399-62.399
		c34.462,0,62.398,27.937,62.398,62.399C494.881-70.437,370.082-70.437,370.082-88.49"/>
	
		<path display="inline" fill="none" stroke="#4D4D4D" stroke-width="7" stroke-linecap="round" stroke-linejoin="round" stroke-miterlimit="10" d="
		M370.082-88.49c0-34.462,27.937-62.399,62.399-62.399c34.462,0,62.398,27.937,62.398,62.399
		C494.881-70.437,370.082-70.437,370.082-88.49z"/>
	<path display="inline" fill="#F69652" d="M417.752-149.136l14.729,14.729l14.729-14.729c-4.724-1.143-9.655-1.753-14.729-1.753
		C427.407-150.889,422.475-150.279,417.752-149.136"/>
	
		<path display="inline" fill="none" stroke="#4D4D4D" stroke-width="7" stroke-linecap="round" stroke-linejoin="round" stroke-miterlimit="10" d="
		M417.752-149.136l14.729,14.729l14.729-14.729c-4.724-1.143-9.655-1.753-14.729-1.753
		C427.407-150.889,422.475-150.279,417.752-149.136z"/>
	<polygon display="inline" fill="#F69652" points="432.481,-81.631 416.792,-97.32 432.481,-134.586 448.17,-97.32 	"/>
	
		<polygon display="inline" fill="none" stroke="#4D4D4D" stroke-width="7" stroke-linecap="round" stroke-linejoin="round" stroke-miterlimit="10" points="
		432.481,-81.631 416.792,-97.32 432.481,-134.586 448.17,-97.32 	"/>
	<path display="inline" fill="#EFD3B6" d="M192.204-192.736c0,17.427-14.127,31.555-31.555,31.555
		c-17.427,0-31.555-14.128-31.555-31.555c0-17.427,14.128-31.555,31.555-31.555C178.077-224.291,192.204-210.163,192.204-192.736"/>
	
		<circle display="inline" fill="none" stroke="#4D4D4D" stroke-width="7" stroke-linecap="round" stroke-linejoin="round" stroke-miterlimit="10" cx="160.649" cy="-192.736" r="31.555"/>
	<path display="inline" fill="#C3EDF5" d="M98.249-88.49c0-34.462,27.937-62.399,62.399-62.399c34.463,0,62.4,27.937,62.4,62.399
		C223.048-70.437,98.249-70.437,98.249-88.49"/>
	
		<path display="inline" fill="none" stroke="#4D4D4D" stroke-width="7" stroke-linecap="round" stroke-linejoin="round" stroke-miterlimit="10" d="
		M98.249-88.49c0-34.462,27.937-62.399,62.399-62.399c34.463,0,62.4,27.937,62.4,62.399C223.048-70.437,98.249-70.437,98.249-88.49z
		"/>
	<path display="inline" fill="#7AACCC" d="M145.919-149.136l14.729,14.729l14.729-14.729c-4.723-1.143-9.654-1.753-14.729-1.753
		C155.574-150.889,150.643-150.279,145.919-149.136"/>
	
		<path display="inline" fill="none" stroke="#4D4D4D" stroke-width="7" stroke-linecap="round" stroke-linejoin="round" stroke-miterlimit="10" d="
		M145.919-149.136l14.729,14.729l14.729-14.729c-4.723-1.143-9.654-1.753-14.729-1.753
		C155.574-150.889,150.643-150.279,145.919-149.136z"/>
	<polygon display="inline" fill="#7AACCC" points="160.648,-81.631 144.959,-97.32 160.648,-134.586 176.337,-97.32 	"/>
	
		<polygon display="inline" fill="none" stroke="#4D4D4D" stroke-width="7" stroke-linecap="round" stroke-linejoin="round" stroke-miterlimit="10" points="
		160.648,-81.631 144.959,-97.32 160.648,-134.586 176.337,-97.32 	"/>
	<path display="inline" fill="#EFD3B6" d="M328.12-234.248c0,17.427-14.128,31.555-31.555,31.555
		c-17.427,0-31.555-14.128-31.555-31.555c0-17.428,14.128-31.555,31.555-31.555C313.992-265.803,328.12-251.676,328.12-234.248"/>
	
		<circle display="inline" fill="none" stroke="#4D4D4D" stroke-width="7" stroke-linecap="round" stroke-linejoin="round" stroke-miterlimit="10" cx="296.565" cy="-234.248" r="31.555"/>
	<path display="inline" fill="#E6E6E6" d="M234.166-130.002c0-34.462,27.937-62.399,62.399-62.399c34.462,0,62.4,27.937,62.4,62.399
		C358.964-111.949,234.166-111.949,234.166-130.002"/>
	
		<path display="inline" fill="none" stroke="#4D4D4D" stroke-width="7" stroke-linecap="round" stroke-linejoin="round" stroke-miterlimit="10" d="
		M234.166-130.002c0-34.462,27.937-62.399,62.399-62.399c34.462,0,62.4,27.937,62.4,62.399
		C358.964-111.949,234.166-111.949,234.166-130.002z"/>
	<path display="inline" fill="#DD6966" d="M281.835-190.648l14.729,14.729l14.73-14.729c-4.724-1.144-9.655-1.753-14.73-1.753
		C291.49-192.401,286.559-191.792,281.835-190.648"/>
	
		<path display="inline" fill="none" stroke="#4D4D4D" stroke-width="7" stroke-linecap="round" stroke-linejoin="round" stroke-miterlimit="10" d="
		M281.835-190.648l14.729,14.729l14.73-14.729c-4.724-1.144-9.655-1.753-14.73-1.753
		C291.49-192.401,286.559-191.792,281.835-190.648z"/>
	<polygon display="inline" fill="#DD6966" points="296.565,-123.144 280.876,-138.833 296.565,-176.099 312.254,-138.833 	"/>
	
		<polygon display="inline" fill="none" stroke="#4D4D4D" stroke-width="7" stroke-linecap="round" stroke-linejoin="round" stroke-miterlimit="10" points="
		296.565,-123.144 280.876,-138.833 296.565,-176.099 312.254,-138.833 	"/>
	<path display="inline" fill="#9C968F" d="M472.322-92.591c0,18.581-78.689,33.644-175.757,33.644S120.808-74.01,120.808-92.591
		s78.689-33.644,175.757-33.644S472.322-111.172,472.322-92.591"/>
	
		<ellipse display="inline" fill="none" stroke="#4D4D4D" stroke-width="7" stroke-linecap="round" stroke-linejoin="round" stroke-miterlimit="10" cx="296.565" cy="-92.591" rx="175.757" ry="33.644"/>
	<path display="inline" fill="#EFD3B6" d="M254.603-134.438c0,17.427-14.127,31.555-31.555,31.555
		c-17.427,0-31.555-14.128-31.555-31.555s14.128-31.555,31.555-31.555C240.476-165.993,254.603-151.864,254.603-134.438"/>
	
		<circle display="inline" fill="none" stroke="#4D4D4D" stroke-width="7" stroke-linecap="round" stroke-linejoin="round" stroke-miterlimit="10" cx="223.048" cy="-134.438" r="31.555"/>
	<path display="inline" fill="#7AD0CB" d="M160.648-30.192c0-34.462,27.937-62.399,62.399-62.399c34.463,0,62.4,27.937,62.4,62.399
		C285.447-12.139,160.648-12.139,160.648-30.192"/>
	
		<path display="inline" fill="none" stroke="#4D4D4D" stroke-width="7" stroke-linecap="round" stroke-linejoin="round" stroke-miterlimit="10" d="
		M160.648-30.192c0-34.462,27.937-62.399,62.399-62.399c34.463,0,62.4,27.937,62.4,62.399
		C285.447-12.139,160.648-12.139,160.648-30.192z"/>
	<path display="inline" fill="#EFD3B6" d="M401.637-134.438c0,17.427-14.127,31.555-31.555,31.555s-31.555-14.128-31.555-31.555
		s14.127-31.555,31.555-31.555S401.637-151.864,401.637-134.438"/>
	
		<circle display="inline" fill="none" stroke="#4D4D4D" stroke-width="7" stroke-linecap="round" stroke-linejoin="round" stroke-miterlimit="10" cx="370.082" cy="-134.438" r="31.555"/>
	<path display="inline" fill="#7AD0CB" d="M307.684-30.192c0-34.462,27.938-62.399,62.398-62.399s62.4,27.937,62.4,62.399
		C432.481-12.139,307.684-12.139,307.684-30.192"/>
	
		<path display="inline" fill="none" stroke="#4D4D4D" stroke-width="7" stroke-linecap="round" stroke-linejoin="round" stroke-miterlimit="10" d="
		M307.684-30.192c0-34.462,27.938-62.399,62.398-62.399s62.4,27.937,62.4,62.399C432.481-12.139,307.684-12.139,307.684-30.192z"/>
</g>
<g>
	<path fill="#EFD3B6" d="M488.588,163.843c0,19.946-16.169,36.117-36.12,36.117c-19.946,0-36.115-16.171-36.115-36.117
		c0-19.947,16.169-36.119,36.115-36.119C472.419,127.727,488.588,143.898,488.588,163.843"/>
	
		<circle fill="none" stroke="#4D4D4D" stroke-width="7" stroke-linecap="round" stroke-linejoin="round" stroke-miterlimit="10" cx="452.472" cy="163.843" r="36.118"/>
	<path fill="#C4D89B" d="M381.05,283.161c0-39.447,31.975-71.421,71.418-71.421c39.447,0,71.423,31.974,71.423,71.421
		C523.891,303.824,381.05,303.824,381.05,283.161"/>
	<path fill="none" stroke="#4D4D4D" stroke-width="7" stroke-linecap="round" stroke-linejoin="round" stroke-miterlimit="10" d="
		M381.05,283.161c0-39.447,31.975-71.421,71.418-71.421c39.447,0,71.423,31.974,71.423,71.421
		C523.891,303.824,381.05,303.824,381.05,283.161z"/>
	<path fill="#F69652" d="M435.613,213.745l16.858,16.86l16.86-16.86c-5.409-1.306-11.05-2.006-16.86-2.006
		C446.664,211.74,441.018,212.439,435.613,213.745"/>
	<path fill="none" stroke="#4D4D4D" stroke-width="7" stroke-linecap="round" stroke-linejoin="round" stroke-miterlimit="10" d="
		M435.613,213.745l16.858,16.86l16.86-16.86c-5.409-1.306-11.05-2.006-16.86-2.006C446.664,211.74,441.018,212.439,435.613,213.745z
		"/>
	<polygon fill="#F69652" points="452.472,291.012 434.514,273.057 452.472,230.402 470.428,273.057 	"/>
	
		<polygon fill="none" stroke="#4D4D4D" stroke-width="7" stroke-linecap="round" stroke-linejoin="round" stroke-miterlimit="10" points="
		452.472,291.012 434.514,273.057 452.472,230.402 470.428,273.057 	"/>
	<path fill="#EFD3B6" d="M177.457,163.843c0,19.946-16.171,36.117-36.12,36.117c-19.947,0-36.116-16.171-36.116-36.117
		c0-19.947,16.169-36.119,36.116-36.119C161.286,127.727,177.457,143.898,177.457,163.843"/>
	
		<circle fill="none" stroke="#4D4D4D" stroke-width="7" stroke-linecap="round" stroke-linejoin="round" stroke-miterlimit="10" cx="141.339" cy="163.843" r="36.116"/>
	<path fill="#C3EDF5" d="M69.917,283.161c0-39.447,31.979-71.421,71.421-71.421c39.447,0,71.42,31.974,71.42,71.421
		C212.758,303.824,69.917,303.824,69.917,283.161"/>
	<path fill="none" stroke="#4D4D4D" stroke-width="7" stroke-linecap="round" stroke-linejoin="round" stroke-miterlimit="10" d="
		M69.917,283.161c0-39.447,31.979-71.421,71.421-71.421c39.447,0,71.42,31.974,71.42,71.421
		C212.758,303.824,69.917,303.824,69.917,283.161z"/>
	<path fill="#7AACCC" d="M124.481,213.745l16.857,16.86l16.859-16.86c-5.404-1.306-11.051-2.006-16.859-2.006
		C135.532,211.74,129.883,212.439,124.481,213.745"/>
	<path fill="none" stroke="#4D4D4D" stroke-width="7" stroke-linecap="round" stroke-linejoin="round" stroke-miterlimit="10" d="
		M124.481,213.745l16.857,16.86l16.859-16.86c-5.404-1.306-11.051-2.006-16.859-2.006
		C135.532,211.74,129.883,212.439,124.481,213.745z"/>
	<polygon fill="#7AACCC" points="141.337,291.012 123.38,273.057 141.337,230.402 159.296,273.057 	"/>
	
		<polygon fill="none" stroke="#4D4D4D" stroke-width="7" stroke-linecap="round" stroke-linejoin="round" stroke-miterlimit="10" points="
		141.337,291.012 123.38,273.057 141.337,230.402 159.296,273.057 	"/>
	<path fill="#9C968F" d="M492.16,323.816c0,41.313-87.418,74.808-195.255,74.808c-107.838,0-195.255-33.494-195.255-74.808
		c0-41.316,87.418-74.813,195.255-74.813S492.16,282.498,492.16,323.816"/>
	
		<ellipse fill="none" stroke="#4D4D4D" stroke-width="7" stroke-linecap="round" stroke-linejoin="round" stroke-miterlimit="10" cx="296.905" cy="323.814" rx="195.255" ry="74.81"/>
	<path fill="#EFD3B6" d="M333.021,307.267c0,19.948-16.17,36.117-36.117,36.117s-36.119-16.169-36.119-36.117
		c0-19.946,16.172-36.117,36.119-36.117C316.852,271.155,333.021,287.323,333.021,307.267"/>
	
		<circle fill="none" stroke="#4D4D4D" stroke-width="7" stroke-linecap="round" stroke-linejoin="round" stroke-miterlimit="10" cx="296.905" cy="307.266" r="36.118"/>
	<path fill="#E6E6E6" d="M225.484,426.584c0-39.442,31.975-71.418,71.42-71.418c39.445,0,71.418,31.976,71.418,71.418
		C368.324,447.249,225.484,447.249,225.484,426.584"/>
	<path fill="none" stroke="#4D4D4D" stroke-width="7" stroke-linecap="round" stroke-linejoin="round" stroke-miterlimit="10" d="
		M225.484,426.584c0-39.442,31.975-71.418,71.42-71.418c39.445,0,71.418,31.976,71.418,71.418
		C368.324,447.249,225.484,447.249,225.484,426.584z"/>
	<rect x="501.318" y="48.281" fill="#FFDA75" width="131.682" height="84.586"/>
	
		<rect x="501.318" y="48.281" fill="none" stroke="#4D4D4D" stroke-width="7" stroke-linecap="round" stroke-linejoin="round" stroke-miterlimit="10" width="131.682" height="84.586"/>
	
		<polyline fill="none" stroke="#4D4D4D" stroke-width="7" stroke-linecap="round" stroke-linejoin="round" stroke-miterlimit="10" points="
		567.159,132.868 567.159,163.843 523.892,189.261 	"/>
	<rect x="-26.459" y="48.281" fill="#F69652" width="131.68" height="84.586"/>
	
		<rect x="-26.459" y="48.281" fill="none" stroke="#4D4D4D" stroke-width="7" stroke-linecap="round" stroke-linejoin="round" stroke-miterlimit="10" width="131.68" height="84.586"/>
	
		<polyline fill="none" stroke="#4D4D4D" stroke-width="7" stroke-linecap="round" stroke-linejoin="round" stroke-miterlimit="10" points="
		39.381,132.868 39.381,163.843 82.65,189.261 	"/>
	<rect x="386.632" y="372.053" fill="#DD6966" width="131.679" height="84.588"/>
	
		<rect x="386.632" y="372.053" fill="none" stroke="#4D4D4D" stroke-width="7" stroke-linecap="round" stroke-linejoin="round" stroke-miterlimit="10" width="131.679" height="84.588"/>
	
		<polyline fill="none" stroke="#4D4D4D" stroke-width="7" stroke-linecap="round" stroke-linejoin="round" stroke-miterlimit="10" points="
		452.472,372.053 452.472,341.078 409.202,315.66 	"/>
</g>
<g display="none">
	<path display="inline" fill="#EFD3B6" d="M1128.553,225.916c0,17.428-14.128,31.555-31.555,31.555
		c-17.428,0-31.557-14.127-31.557-31.555c0-17.428,14.129-31.555,31.557-31.555C1114.425,194.361,1128.553,208.488,1128.553,225.916
		"/>
	
		<circle display="inline" fill="none" stroke="#4D4D4D" stroke-width="7" stroke-linecap="round" stroke-linejoin="round" stroke-miterlimit="10" cx="1096.998" cy="225.916" r="31.555"/>
	<path display="inline" fill="#C3EDF5" d="M1034.599,330.162c0-34.463,27.938-62.398,62.399-62.398s62.399,27.938,62.399,62.398
		C1159.396,348.215,1034.599,348.215,1034.599,330.162"/>
	
		<path display="inline" fill="none" stroke="#4D4D4D" stroke-width="7" stroke-linecap="round" stroke-linejoin="round" stroke-miterlimit="10" d="
		M1034.599,330.162c0-34.463,27.938-62.398,62.399-62.398s62.399,27.938,62.399,62.398
		C1159.396,348.215,1034.599,348.215,1034.599,330.162z"/>
	<path display="inline" fill="#7AACCC" d="M1082.27,269.516l14.729,14.729l14.729-14.729c-4.725-1.143-9.654-1.752-14.729-1.752
		S1086.991,268.373,1082.27,269.516"/>
	
		<path display="inline" fill="none" stroke="#4D4D4D" stroke-width="7" stroke-linecap="round" stroke-linejoin="round" stroke-miterlimit="10" d="
		M1082.27,269.516l14.729,14.729l14.729-14.729c-4.725-1.143-9.654-1.752-14.729-1.752S1086.991,268.373,1082.27,269.516z"/>
	<polygon display="inline" fill="#7AACCC" points="1096.998,337.021 1081.309,321.332 1096.998,284.066 1112.686,321.332 	"/>
	
		<polygon display="inline" fill="none" stroke="#4D4D4D" stroke-width="7" stroke-linecap="round" stroke-linejoin="round" stroke-miterlimit="10" points="
		1096.998,337.021 1081.309,321.332 1096.998,284.066 1112.686,321.332 	"/>
	<path display="inline" fill="#EFD3B6" d="M981.838,225.916c0,17.428-14.128,31.555-31.555,31.555
		c-17.428,0-31.555-14.127-31.555-31.555c0-17.428,14.127-31.555,31.555-31.555C967.71,194.361,981.838,208.488,981.838,225.916"/>
	
		<circle display="inline" fill="none" stroke="#4D4D4D" stroke-width="7" stroke-linecap="round" stroke-linejoin="round" stroke-miterlimit="10" cx="950.283" cy="225.916" r="31.555"/>
	<path display="inline" fill="#E6E6E6" d="M887.884,330.162c0-34.463,27.938-62.398,62.399-62.398s62.397,27.938,62.397,62.398
		C1012.683,348.215,887.884,348.215,887.884,330.162"/>
	
		<path display="inline" fill="none" stroke="#4D4D4D" stroke-width="7" stroke-linecap="round" stroke-linejoin="round" stroke-miterlimit="10" d="
		M887.884,330.162c0-34.463,27.938-62.398,62.399-62.398s62.397,27.938,62.397,62.398
		C1012.683,348.215,887.884,348.215,887.884,330.162z"/>
	<path display="inline" fill="#DD6966" d="M935.554,269.516l14.729,14.729l14.729-14.729c-4.724-1.143-9.653-1.752-14.729-1.752
		S940.277,268.373,935.554,269.516"/>
	
		<path display="inline" fill="none" stroke="#4D4D4D" stroke-width="7" stroke-linecap="round" stroke-linejoin="round" stroke-miterlimit="10" d="
		M935.554,269.516l14.729,14.729l14.729-14.729c-4.724-1.143-9.653-1.752-14.729-1.752S940.277,268.373,935.554,269.516z"/>
	<polygon display="inline" fill="#DD6966" points="950.283,337.021 934.594,321.332 950.283,284.066 965.973,321.332 	"/>
	
		<polygon display="inline" fill="none" stroke="#4D4D4D" stroke-width="7" stroke-linecap="round" stroke-linejoin="round" stroke-miterlimit="10" points="
		950.283,337.021 934.594,321.332 950.283,284.066 965.973,321.332 	"/>
	<rect x="1124.388" y="128.075" display="inline" fill="#F69652" width="80.421" height="51.66"/>
	
		<rect x="1124.388" y="128.075" display="inline" fill="none" stroke="#4D4D4D" stroke-width="7" stroke-linecap="round" stroke-linejoin="round" stroke-miterlimit="10" width="80.421" height="51.66"/>
	
		<polyline display="inline" fill="none" stroke="#4D4D4D" stroke-width="7" stroke-linecap="round" stroke-linejoin="round" stroke-miterlimit="10" points="
		1164.598,179.735 1164.598,198.652 1138.173,214.175 	"/>
	<rect x="831.528" y="151.313" display="inline" fill="#DD6966" width="80.42" height="51.658"/>
	
		<rect x="831.528" y="151.313" display="inline" fill="none" stroke="#4D4D4D" stroke-width="7" stroke-linecap="round" stroke-linejoin="round" stroke-miterlimit="10" width="80.42" height="51.658"/>
	
		<polyline display="inline" fill="none" stroke="#4D4D4D" stroke-width="7" stroke-linecap="round" stroke-linejoin="round" stroke-miterlimit="10" points="
		871.738,202.971 871.738,221.889 898.163,237.41 	"/>
	<path display="inline" fill="#9C968F" d="M1167.339,368.05H864.541c-12.901,0-23.359-10.458-23.359-23.357
		c0-12.9,10.458-23.358,23.359-23.358h302.798c12.899,0,23.358,10.458,23.358,23.358
		C1190.697,357.592,1180.238,368.05,1167.339,368.05"/>
	
		<path display="inline" fill="none" stroke="#4D4D4D" stroke-width="7" stroke-linecap="round" stroke-linejoin="round" stroke-miterlimit="10" d="
		M1167.339,368.05H864.541c-12.901,0-23.359-10.458-23.359-23.357c0-12.9,10.458-23.358,23.359-23.358h302.798
		c12.899,0,23.358,10.458,23.358,23.358C1190.697,357.592,1180.238,368.05,1167.339,368.05z"/>
</g>
<g display="none">
	<g display="inline">
		<g>
			<defs>
				<path id="SVGID_79_" d="M549.466,199.753c0,40.192,32.582,72.774,72.776,72.774c40.19,0,72.773-32.583,72.773-72.774
					c0-40.194-32.583-72.776-72.773-72.776C582.048,126.977,549.466,159.559,549.466,199.753"/>
			</defs>
			<clipPath id="SVGID_80_">
				<use xlink:href="#SVGID_79_"  overflow="visible"/>
			</clipPath>
			<path clip-path="url(#SVGID_80_)" fill="#EFD3B6" d="M647.851,176.938c0,14.144-11.465,25.609-25.607,25.609
				c-14.144,0-25.609-11.466-25.609-25.609s11.466-25.609,25.609-25.609C636.386,151.328,647.851,162.794,647.851,176.938"/>
		</g>
	</g>
	<g display="inline">
		<g>
			<defs>
				<path id="SVGID_81_" d="M549.466,199.753c0,40.192,32.582,72.774,72.776,72.774c40.19,0,72.773-32.583,72.773-72.774
					c0-40.194-32.583-72.776-72.773-72.776C582.048,126.977,549.466,159.559,549.466,199.753"/>
			</defs>
			<clipPath id="SVGID_82_">
				<use xlink:href="#SVGID_81_"  overflow="visible"/>
			</clipPath>
			
				<circle clip-path="url(#SVGID_82_)" fill="none" stroke="#4D4D4D" stroke-width="7" stroke-linecap="round" stroke-linejoin="round" stroke-miterlimit="10" cx="622.242" cy="176.938" r="25.609"/>
		</g>
	</g>
	<g display="inline">
		<g>
			<defs>
				<path id="SVGID_83_" d="M549.466,199.753c0,40.192,32.582,72.774,72.776,72.774c40.19,0,72.773-32.583,72.773-72.774
					c0-40.194-32.583-72.776-72.773-72.776C582.048,126.977,549.466,159.559,549.466,199.753"/>
			</defs>
			<clipPath id="SVGID_84_">
				<use xlink:href="#SVGID_83_"  overflow="visible"/>
			</clipPath>
			<path clip-path="url(#SVGID_84_)" fill="#E6E6E6" d="M571.601,261.54c0-27.968,22.675-50.642,50.644-50.642
				c27.968,0,50.641,22.674,50.641,50.642C672.884,276.191,571.601,276.191,571.601,261.54"/>
		</g>
	</g>
	<g display="inline">
		<g>
			<defs>
				<path id="SVGID_85_" d="M549.466,199.753c0,40.192,32.582,72.774,72.776,72.774c40.19,0,72.773-32.583,72.773-72.774
					c0-40.194-32.583-72.776-72.773-72.776C582.048,126.977,549.466,159.559,549.466,199.753"/>
			</defs>
			<clipPath id="SVGID_86_">
				<use xlink:href="#SVGID_85_"  overflow="visible"/>
			</clipPath>
			
				<path clip-path="url(#SVGID_86_)" fill="none" stroke="#4D4D4D" stroke-width="7" stroke-linecap="round" stroke-linejoin="round" stroke-miterlimit="10" d="
				M571.601,261.54c0-27.968,22.675-50.642,50.644-50.642c27.968,0,50.641,22.674,50.641,50.642
				C672.884,276.191,571.601,276.191,571.601,261.54z"/>
		</g>
	</g>
	<g display="inline">
		<g>
			<defs>
				<path id="SVGID_87_" d="M549.466,199.753c0,40.192,32.582,72.774,72.776,72.774c40.19,0,72.773-32.583,72.773-72.774
					c0-40.194-32.583-72.776-72.773-72.776C582.048,126.977,549.466,159.559,549.466,199.753"/>
			</defs>
			<clipPath id="SVGID_88_">
				<use xlink:href="#SVGID_87_"  overflow="visible"/>
			</clipPath>
			<path clip-path="url(#SVGID_88_)" fill="#DD6966" d="M610.288,212.322l11.954,11.954l11.954-11.954
				c-3.833-0.928-7.836-1.424-11.954-1.424C618.123,210.898,614.121,211.395,610.288,212.322"/>
		</g>
	</g>
	<g display="inline">
		<g>
			<defs>
				<path id="SVGID_89_" d="M549.466,199.753c0,40.192,32.582,72.774,72.776,72.774c40.19,0,72.773-32.583,72.773-72.774
					c0-40.194-32.583-72.776-72.773-72.776C582.048,126.977,549.466,159.559,549.466,199.753"/>
			</defs>
			<clipPath id="SVGID_90_">
				<use xlink:href="#SVGID_89_"  overflow="visible"/>
			</clipPath>
			
				<path clip-path="url(#SVGID_90_)" fill="none" stroke="#4D4D4D" stroke-width="7" stroke-linecap="round" stroke-linejoin="round" stroke-miterlimit="10" d="
				M610.288,212.322l11.954,11.954l11.954-11.954c-3.833-0.928-7.836-1.424-11.954-1.424
				C618.123,210.898,614.121,211.395,610.288,212.322z"/>
		</g>
	</g>
	<g display="inline">
		<g>
			<defs>
				<path id="SVGID_91_" d="M549.466,199.753c0,40.192,32.582,72.774,72.776,72.774c40.19,0,72.773-32.583,72.773-72.774
					c0-40.194-32.583-72.776-72.773-72.776C582.048,126.977,549.466,159.559,549.466,199.753"/>
			</defs>
			<clipPath id="SVGID_92_">
				<use xlink:href="#SVGID_91_"  overflow="visible"/>
			</clipPath>
			<polygon clip-path="url(#SVGID_92_)" fill="#DD6966" points="622.242,267.107 609.509,254.374 622.242,224.131 634.975,254.374 
							"/>
		</g>
	</g>
	<g display="inline">
		<g>
			<defs>
				<path id="SVGID_93_" d="M549.466,199.753c0,40.192,32.582,72.774,72.776,72.774c40.19,0,72.773-32.583,72.773-72.774
					c0-40.194-32.583-72.776-72.773-72.776C582.048,126.977,549.466,159.559,549.466,199.753"/>
			</defs>
			<clipPath id="SVGID_94_">
				<use xlink:href="#SVGID_93_"  overflow="visible"/>
			</clipPath>
			
				<polygon clip-path="url(#SVGID_94_)" fill="none" stroke="#4D4D4D" stroke-width="7" stroke-linecap="round" stroke-linejoin="round" stroke-miterlimit="10" points="
				622.242,267.107 609.509,254.374 622.242,224.131 634.975,254.374 			"/>
		</g>
	</g>
</g>
<g display="none">
	<g display="inline">
		<g>
			<defs>
				<rect id="SVGID_95_" x="-50" y="-431" width="1400" height="980"/>
			</defs>
			<clipPath id="SVGID_96_">
				<use xlink:href="#SVGID_95_"  overflow="visible"/>
			</clipPath>
			<path clip-path="url(#SVGID_96_)" fill="#E6E6E6" d="M622.242,287.184c-48.21,0-87.433-39.222-87.433-87.432
				c0-48.209,39.223-87.431,87.433-87.431s87.431,39.222,87.431,87.431C709.673,247.962,670.452,287.184,622.242,287.184
				 M622.242,126.977c-40.193,0-72.776,32.583-72.776,72.776c0,40.192,32.583,72.774,72.776,72.774
				c40.191,0,72.774-32.583,72.774-72.774C695.019,159.56,662.436,126.977,622.242,126.977"/>
		</g>
	</g>
	<g display="inline">
		<g>
			<defs>
				<rect id="SVGID_97_" x="-50" y="-431" width="1400" height="980"/>
			</defs>
			<clipPath id="SVGID_98_">
				<use xlink:href="#SVGID_97_"  overflow="visible"/>
			</clipPath>
			
				<path clip-path="url(#SVGID_98_)" fill="none" stroke="#4D4D4D" stroke-width="7" stroke-linecap="round" stroke-linejoin="round" stroke-miterlimit="10" d="
				M622.242,287.184c-48.21,0-87.433-39.222-87.433-87.432c0-48.209,39.223-87.431,87.433-87.431s87.431,39.222,87.431,87.431
				C709.673,247.962,670.452,287.184,622.242,287.184z M622.242,126.977c-40.193,0-72.776,32.583-72.776,72.776
				c0,40.192,32.583,72.774,72.776,72.774c40.191,0,72.774-32.583,72.774-72.774C695.019,159.56,662.436,126.977,622.242,126.977z"
				/>
		</g>
	</g>
</g>
</svg>
