<?xml version="1.0" encoding="utf-8"?>
<!-- Generator: Adobe Illustrator 16.0.0, SVG Export Plug-In . SVG Version: 6.00 Build 0)  -->
<!DOCTYPE svg PUBLIC "-//W3C//DTD SVG 1.1//EN" "http://www.w3.org/Graphics/SVG/1.1/DTD/svg11.dtd" [
	<!ENTITY ns_extend "http://ns.adobe.com/Extensibility/1.0/">
	<!ENTITY ns_ai "http://ns.adobe.com/AdobeIllustrator/10.0/">
	<!ENTITY ns_graphs "http://ns.adobe.com/Graphs/1.0/">
	<!ENTITY ns_vars "http://ns.adobe.com/Variables/1.0/">
	<!ENTITY ns_imrep "http://ns.adobe.com/ImageReplacement/1.0/">
	<!ENTITY ns_sfw "http://ns.adobe.com/SaveForWeb/1.0/">
	<!ENTITY ns_custom "http://ns.adobe.com/GenericCustomNamespace/1.0/">
	<!ENTITY ns_adobe_xpath "http://ns.adobe.com/XPath/1.0/">
]>
<svg version="1.1" id="Layer_1" xmlns:x="&ns_extend;" xmlns:i="&ns_ai;" xmlns:graph="&ns_graphs;"
	 xmlns="http://www.w3.org/2000/svg" xmlns:xlink="http://www.w3.org/1999/xlink" x="0px" y="0px" width="603px" height="485px"
	 viewBox="0 0 603 485" enable-background="new 0 0 603 485" xml:space="preserve">
<metadata>
	<sfw  xmlns="&ns_sfw;">
		<slices></slices>
		<sliceSourceBounds  width="1400" height="980" x="0" y="0" bottomLeftOrigin="true"></sliceSourceBounds>
	</sfw>
</metadata>
<g display="none">
	<defs>
		<rect id="SVGID_1_" x="-50" y="-431" width="1400" height="980"/>
	</defs>
	<clipPath id="SVGID_2_" display="inline">
		<use xlink:href="#SVGID_1_"  overflow="visible"/>
	</clipPath>
	<path display="inline" clip-path="url(#SVGID_2_)" fill="#A6C8DD" d="M557.4,15.925v-264.723c0-9.392,7.613-17.005,17.004-17.005
		h192.295c9.392,0,17.005,7.613,17.005,17.005V15.925c0,9.391-7.613,17.004-17.005,17.004H574.404
		C565.013,32.929,557.4,25.316,557.4,15.925"/>
	
		<path display="inline" clip-path="url(#SVGID_2_)" fill="none" stroke="#4D4D4D" stroke-width="7" stroke-linecap="round" stroke-linejoin="round" stroke-miterlimit="10" d="
		M557.4,15.925v-264.723c0-9.392,7.613-17.005,17.004-17.005h192.295c9.392,0,17.005,7.613,17.005,17.005V15.925
		c0,9.391-7.613,17.004-17.005,17.004H574.404C565.013,32.929,557.4,25.316,557.4,15.925z"/>
	<path display="inline" clip-path="url(#SVGID_2_)" fill="#EFD3B6" d="M694.57-195.409c0,13.265-10.753,24.018-24.02,24.018
		c-13.264,0-24.017-10.753-24.017-24.018s10.753-24.018,24.017-24.018C683.817-219.427,694.57-208.674,694.57-195.409"/>
	
		<circle display="inline" clip-path="url(#SVGID_2_)" fill="none" stroke="#4D4D4D" stroke-width="7" stroke-linecap="round" stroke-linejoin="round" stroke-miterlimit="10" cx="670.552" cy="-195.409" r="24.018"/>
	<path display="inline" clip-path="url(#SVGID_2_)" fill="#E6E6E6" d="M623.057-116.063c0-26.231,21.264-47.495,47.495-47.495
		c26.231,0,47.496,21.264,47.496,47.495C718.048-102.321,623.057-102.321,623.057-116.063"/>
	
		<path display="inline" clip-path="url(#SVGID_2_)" fill="none" stroke="#4D4D4D" stroke-width="7" stroke-linecap="round" stroke-linejoin="round" stroke-miterlimit="10" d="
		M623.057-116.063c0-26.231,21.264-47.495,47.495-47.495c26.231,0,47.496,21.264,47.496,47.495
		C718.048-102.321,623.057-102.321,623.057-116.063z"/>
	<path display="inline" clip-path="url(#SVGID_2_)" fill="#DD6966" d="M659.341-162.223l11.211,11.211l11.212-11.211
		c-3.596-0.87-7.349-1.334-11.212-1.334C666.689-163.557,662.937-163.093,659.341-162.223"/>
	
		<path display="inline" clip-path="url(#SVGID_2_)" fill="none" stroke="#4D4D4D" stroke-width="7" stroke-linecap="round" stroke-linejoin="round" stroke-miterlimit="10" d="
		M659.341-162.223l11.211,11.211l11.212-11.211c-3.596-0.87-7.349-1.334-11.212-1.334
		C666.689-163.557,662.937-163.093,659.341-162.223z"/>
	<polygon display="inline" clip-path="url(#SVGID_2_)" fill="#DD6966" points="670.552,-110.841 658.61,-122.783 670.552,-151.148 
		682.494,-122.783 	"/>
	
		<polygon display="inline" clip-path="url(#SVGID_2_)" fill="none" stroke="#4D4D4D" stroke-width="7" stroke-linecap="round" stroke-linejoin="round" stroke-miterlimit="10" points="
		670.552,-110.841 658.61,-122.783 670.552,-151.148 682.494,-122.783 	"/>
	<path display="inline" clip-path="url(#SVGID_2_)" fill="#666666" d="M733.088-50.824H608.016c-4.818,0-8.723-3.906-8.723-8.724
		c0-4.818,3.905-8.724,8.723-8.724h125.072c4.818,0,8.725,3.906,8.725,8.724C741.813-54.73,737.906-50.824,733.088-50.824"/>
	
		<path display="inline" clip-path="url(#SVGID_2_)" fill="none" stroke="#4D4D4D" stroke-width="7" stroke-linecap="round" stroke-linejoin="round" stroke-miterlimit="10" d="
		M733.088-50.824H608.016c-4.818,0-8.723-3.906-8.723-8.724c0-4.818,3.905-8.724,8.723-8.724h125.072
		c4.818,0,8.725,3.906,8.725,8.724C741.813-54.73,737.906-50.824,733.088-50.824z"/>
	<path display="inline" clip-path="url(#SVGID_2_)" fill="#666666" d="M733.088-23.702H608.016c-4.818,0-8.723-3.906-8.723-8.724
		c0-4.818,3.905-8.724,8.723-8.724h125.072c4.818,0,8.725,3.906,8.725,8.724C741.813-27.608,737.906-23.702,733.088-23.702"/>
	
		<path display="inline" clip-path="url(#SVGID_2_)" fill="none" stroke="#4D4D4D" stroke-width="7" stroke-linecap="round" stroke-linejoin="round" stroke-miterlimit="10" d="
		M733.088-23.702H608.016c-4.818,0-8.723-3.906-8.723-8.724c0-4.818,3.905-8.724,8.723-8.724h125.072
		c4.818,0,8.725,3.906,8.725,8.724C741.813-27.608,737.906-23.702,733.088-23.702z"/>
	<path display="inline" clip-path="url(#SVGID_2_)" fill="#666666" d="M733.088,3.419H608.016c-4.818,0-8.723-3.906-8.723-8.724
		c0-4.818,3.905-8.724,8.723-8.724h125.072c4.818,0,8.725,3.906,8.725,8.724C741.813-0.486,737.906,3.419,733.088,3.419"/>
	
		<path display="inline" clip-path="url(#SVGID_2_)" fill="none" stroke="#4D4D4D" stroke-width="7" stroke-linecap="round" stroke-linejoin="round" stroke-miterlimit="10" d="
		M733.088,3.419H608.016c-4.818,0-8.723-3.906-8.723-8.724c0-4.818,3.905-8.724,8.723-8.724h125.072
		c4.818,0,8.725,3.906,8.725,8.724C741.813-0.486,737.906,3.419,733.088,3.419z"/>
	<path display="inline" clip-path="url(#SVGID_2_)" fill="#F2F2F2" d="M1170.818-49.617H865.518
		c-9.803,0-17.752-7.948-17.752-17.752v-180.682c0-9.804,7.949-17.752,17.752-17.752h305.301c9.805,0,17.752,7.948,17.752,17.752
		v180.682C1188.57-57.565,1180.623-49.617,1170.818-49.617"/>
	
		<path display="inline" clip-path="url(#SVGID_2_)" fill="none" stroke="#4D4D4D" stroke-width="7" stroke-linecap="round" stroke-linejoin="round" stroke-miterlimit="10" d="
		M1170.818-49.617H865.518c-9.803,0-17.752-7.948-17.752-17.752v-180.682c0-9.804,7.949-17.752,17.752-17.752h305.301
		c9.805,0,17.752,7.948,17.752,17.752v180.682C1188.57-57.565,1180.623-49.617,1170.818-49.617z"/>
	<path display="inline" clip-path="url(#SVGID_2_)" fill="#EFD3B6" d="M959.443-162.375c0,12.672-10.271,22.944-22.944,22.944
		c-12.671,0-22.943-10.272-22.943-22.944c0-12.671,10.272-22.944,22.943-22.944C949.172-185.318,959.443-175.045,959.443-162.375"/>
	
		<circle display="inline" clip-path="url(#SVGID_2_)" fill="none" stroke="#4D4D4D" stroke-width="7" stroke-linecap="round" stroke-linejoin="round" stroke-miterlimit="10" cx="936.5" cy="-162.375" r="22.944"/>
	<path display="inline" clip-path="url(#SVGID_2_)" fill="#E6E6E6" d="M891.128-86.575c0-25.059,20.313-45.372,45.371-45.372
		c25.059,0,45.372,20.313,45.372,45.372C981.871-73.449,891.128-73.449,891.128-86.575"/>
	
		<path display="inline" clip-path="url(#SVGID_2_)" fill="none" stroke="#4D4D4D" stroke-width="7" stroke-linecap="round" stroke-linejoin="round" stroke-miterlimit="10" d="
		M891.128-86.575c0-25.059,20.313-45.372,45.371-45.372c25.059,0,45.372,20.313,45.372,45.372
		C981.871-73.449,891.128-73.449,891.128-86.575z"/>
	<path display="inline" clip-path="url(#SVGID_2_)" fill="#DD6966" d="M925.789-130.672l10.71,10.71l10.711-10.71
		c-3.435-0.831-7.021-1.275-10.711-1.275C932.811-131.947,929.225-131.503,925.789-130.672"/>
	
		<path display="inline" clip-path="url(#SVGID_2_)" fill="none" stroke="#4D4D4D" stroke-width="7" stroke-linecap="round" stroke-linejoin="round" stroke-miterlimit="10" d="
		M925.789-130.672l10.71,10.71l10.711-10.71c-3.435-0.831-7.021-1.275-10.711-1.275
		C932.811-131.947,929.225-131.503,925.789-130.672z"/>
	<polygon display="inline" clip-path="url(#SVGID_2_)" fill="#DD6966" points="936.499,-81.588 925.092,-92.996 936.499,-120.092 
		947.907,-92.996 	"/>
	
		<polygon display="inline" clip-path="url(#SVGID_2_)" fill="none" stroke="#4D4D4D" stroke-width="7" stroke-linecap="round" stroke-linejoin="round" stroke-miterlimit="10" points="
		936.499,-81.588 925.092,-92.996 936.499,-120.092 947.907,-92.996 	"/>
	<path display="inline" clip-path="url(#SVGID_2_)" fill="#666666" d="M1145.981-168.579h-119.479c-4.603,0-8.334-3.731-8.334-8.334
		s3.731-8.334,8.334-8.334h119.479c4.603,0,8.334,3.731,8.334,8.334S1150.584-168.579,1145.981-168.579"/>
	
		<path display="inline" clip-path="url(#SVGID_2_)" fill="none" stroke="#4D4D4D" stroke-width="7" stroke-linecap="round" stroke-linejoin="round" stroke-miterlimit="10" d="
		M1145.981-168.579h-119.479c-4.603,0-8.334-3.731-8.334-8.334s3.731-8.334,8.334-8.334h119.479c4.603,0,8.334,3.731,8.334,8.334
		S1150.584-168.579,1145.981-168.579z"/>
	<path display="inline" clip-path="url(#SVGID_2_)" fill="#666666" d="M1145.981-122.691h-119.479c-4.603,0-8.334-3.731-8.334-8.333
		c0-4.604,3.731-8.334,8.334-8.334h119.479c4.603,0,8.334,3.73,8.334,8.334C1154.315-126.422,1150.584-122.691,1145.981-122.691"/>
	
		<path display="inline" clip-path="url(#SVGID_2_)" fill="none" stroke="#4D4D4D" stroke-width="7" stroke-linecap="round" stroke-linejoin="round" stroke-miterlimit="10" d="
		M1145.981-122.691h-119.479c-4.603,0-8.334-3.731-8.334-8.333c0-4.604,3.731-8.334,8.334-8.334h119.479
		c4.603,0,8.334,3.73,8.334,8.334C1154.315-126.422,1150.584-122.691,1145.981-122.691z"/>
	<path display="inline" clip-path="url(#SVGID_2_)" fill="#666666" d="M1145.981-76.802h-119.479c-4.603,0-8.334-3.731-8.334-8.334
		s3.731-8.334,8.334-8.334h119.479c4.603,0,8.334,3.731,8.334,8.334S1150.584-76.802,1145.981-76.802"/>
	
		<path display="inline" clip-path="url(#SVGID_2_)" fill="none" stroke="#4D4D4D" stroke-width="7" stroke-linecap="round" stroke-linejoin="round" stroke-miterlimit="10" d="
		M1145.981-76.802h-119.479c-4.603,0-8.334-3.731-8.334-8.334s3.731-8.334,8.334-8.334h119.479c4.603,0,8.334,3.731,8.334,8.334
		S1150.584-76.802,1145.981-76.802z"/>
	<path display="inline" clip-path="url(#SVGID_2_)" fill="#DD6966" d="M1144.529-215.353H891.808
		c-7.718,0-13.974-6.256-13.974-13.974c0-7.717,6.256-13.973,13.974-13.973h252.722c7.717,0,13.974,6.256,13.974,13.973
		C1158.503-221.608,1152.246-215.353,1144.529-215.353"/>
	
		<path display="inline" clip-path="url(#SVGID_2_)" fill="none" stroke="#4D4D4D" stroke-width="7" stroke-linecap="round" stroke-linejoin="round" stroke-miterlimit="10" d="
		M1144.529-215.353H891.808c-7.718,0-13.974-6.256-13.974-13.974c0-7.717,6.256-13.973,13.974-13.973h252.722
		c7.717,0,13.974,6.256,13.974,13.973C1158.503-221.608,1152.246-215.353,1144.529-215.353z"/>
	
		<rect x="690.919" y="248.583" transform="matrix(0.7071 -0.7071 0.7071 0.7071 7.733 578.4843)" display="inline" clip-path="url(#SVGID_2_)" fill="#B3B3B3" width="22.54" height="62.649"/>
	
		<rect x="690.919" y="248.583" transform="matrix(0.7071 -0.7071 0.7071 0.7071 7.733 578.4843)" display="inline" clip-path="url(#SVGID_2_)" fill="none" stroke="#4D4D4D" stroke-width="7" stroke-linecap="round" stroke-linejoin="round" stroke-miterlimit="10" width="22.54" height="62.649"/>
	<path display="inline" clip-path="url(#SVGID_2_)" fill="#666666" d="M799.259,376.769L799.259,376.769
		c-9.38,9.38-24.587,9.38-33.966,0l-57.784-57.784c-9.379-9.379-9.379-24.586,0-33.965v-0.001c9.379-9.379,24.586-9.379,33.965,0
		l57.785,57.785C808.638,352.183,808.638,367.39,799.259,376.769"/>
	
		<path display="inline" clip-path="url(#SVGID_2_)" fill="none" stroke="#4D4D4D" stroke-width="7" stroke-linecap="round" stroke-linejoin="round" stroke-miterlimit="10" d="
		M799.259,376.769L799.259,376.769c-9.38,9.38-24.587,9.38-33.966,0l-57.784-57.784c-9.379-9.379-9.379-24.586,0-33.965v-0.001
		c9.379-9.379,24.586-9.379,33.965,0l57.785,57.785C808.638,352.183,808.638,367.39,799.259,376.769z"/>
	<path display="inline" clip-path="url(#SVGID_2_)" fill="#C3EDF5" d="M622.242,126.977c-40.193,0-72.776,32.583-72.776,72.776
		c0,40.192,32.583,72.775,72.776,72.775c40.193,0,72.776-32.583,72.776-72.775C695.019,159.56,662.436,126.977,622.242,126.977"/>
</g>
<g display="none">
	<path display="inline" fill="#EFD3B6" d="M464.036-192.736c0,17.427-14.127,31.555-31.555,31.555
		c-17.427,0-31.555-14.128-31.555-31.555c0-17.427,14.128-31.555,31.555-31.555C449.909-224.291,464.036-210.163,464.036-192.736"/>
	
		<circle display="inline" fill="none" stroke="#4D4D4D" stroke-width="7" stroke-linecap="round" stroke-linejoin="round" stroke-miterlimit="10" cx="432.481" cy="-192.736" r="31.555"/>
	<path display="inline" fill="#C4D89B" d="M370.082-88.49c0-34.462,27.937-62.399,62.399-62.399s62.4,27.937,62.4,62.399
		C494.881-70.437,370.082-70.437,370.082-88.49"/>
	
		<path display="inline" fill="none" stroke="#4D4D4D" stroke-width="7" stroke-linecap="round" stroke-linejoin="round" stroke-miterlimit="10" d="
		M370.082-88.49c0-34.462,27.937-62.399,62.399-62.399s62.4,27.937,62.4,62.399C494.881-70.437,370.082-70.437,370.082-88.49z"/>
	<path display="inline" fill="#F69652" d="M417.752-149.136l14.729,14.729l14.73-14.729c-4.724-1.143-9.655-1.753-14.73-1.753
		C427.407-150.889,422.475-150.279,417.752-149.136"/>
	
		<path display="inline" fill="none" stroke="#4D4D4D" stroke-width="7" stroke-linecap="round" stroke-linejoin="round" stroke-miterlimit="10" d="
		M417.752-149.136l14.729,14.729l14.73-14.729c-4.724-1.143-9.655-1.753-14.73-1.753
		C427.407-150.889,422.475-150.279,417.752-149.136z"/>
	<polygon display="inline" fill="#F69652" points="432.481,-81.631 416.792,-97.32 432.481,-134.586 448.17,-97.32 	"/>
	
		<polygon display="inline" fill="none" stroke="#4D4D4D" stroke-width="7" stroke-linecap="round" stroke-linejoin="round" stroke-miterlimit="10" points="
		432.481,-81.631 416.792,-97.32 432.481,-134.586 448.17,-97.32 	"/>
	<path display="inline" fill="#EFD3B6" d="M192.204-192.736c0,17.427-14.127,31.555-31.555,31.555
		c-17.427,0-31.555-14.128-31.555-31.555c0-17.427,14.128-31.555,31.555-31.555C178.077-224.291,192.204-210.163,192.204-192.736"/>
	
		<circle display="inline" fill="none" stroke="#4D4D4D" stroke-width="7" stroke-linecap="round" stroke-linejoin="round" stroke-miterlimit="10" cx="160.649" cy="-192.736" r="31.555"/>
	<path display="inline" fill="#C3EDF5" d="M98.249-88.49c0-34.462,27.937-62.399,62.399-62.399c34.463,0,62.4,27.937,62.4,62.399
		C223.048-70.437,98.249-70.437,98.249-88.49"/>
	
		<path display="inline" fill="none" stroke="#4D4D4D" stroke-width="7" stroke-linecap="round" stroke-linejoin="round" stroke-miterlimit="10" d="
		M98.249-88.49c0-34.462,27.937-62.399,62.399-62.399c34.463,0,62.4,27.937,62.4,62.399C223.048-70.437,98.249-70.437,98.249-88.49z
		"/>
	<path display="inline" fill="#7AACCC" d="M145.919-149.136l14.729,14.729l14.729-14.729c-4.723-1.143-9.654-1.753-14.729-1.753
		C155.574-150.889,150.643-150.279,145.919-149.136"/>
	
		<path display="inline" fill="none" stroke="#4D4D4D" stroke-width="7" stroke-linecap="round" stroke-linejoin="round" stroke-miterlimit="10" d="
		M145.919-149.136l14.729,14.729l14.729-14.729c-4.723-1.143-9.654-1.753-14.729-1.753
		C155.574-150.889,150.643-150.279,145.919-149.136z"/>
	<polygon display="inline" fill="#7AACCC" points="160.648,-81.631 144.959,-97.32 160.648,-134.586 176.337,-97.32 	"/>
	
		<polygon display="inline" fill="none" stroke="#4D4D4D" stroke-width="7" stroke-linecap="round" stroke-linejoin="round" stroke-miterlimit="10" points="
		160.648,-81.631 144.959,-97.32 160.648,-134.586 176.337,-97.32 	"/>
	<path display="inline" fill="#EFD3B6" d="M328.12-234.248c0,17.427-14.128,31.555-31.555,31.555
		c-17.427,0-31.555-14.128-31.555-31.555c0-17.428,14.128-31.555,31.555-31.555C313.992-265.803,328.12-251.676,328.12-234.248"/>
	
		<circle display="inline" fill="none" stroke="#4D4D4D" stroke-width="7" stroke-linecap="round" stroke-linejoin="round" stroke-miterlimit="10" cx="296.565" cy="-234.248" r="31.555"/>
	<path display="inline" fill="#E6E6E6" d="M234.166-130.002c0-34.462,27.937-62.399,62.399-62.399c34.463,0,62.4,27.937,62.4,62.399
		C358.964-111.949,234.166-111.949,234.166-130.002"/>
	
		<path display="inline" fill="none" stroke="#4D4D4D" stroke-width="7" stroke-linecap="round" stroke-linejoin="round" stroke-miterlimit="10" d="
		M234.166-130.002c0-34.462,27.937-62.399,62.399-62.399c34.463,0,62.4,27.937,62.4,62.399
		C358.964-111.949,234.166-111.949,234.166-130.002z"/>
	<path display="inline" fill="#DD6966" d="M281.835-190.648l14.729,14.729l14.73-14.729c-4.723-1.144-9.655-1.753-14.73-1.753
		C291.49-192.401,286.559-191.792,281.835-190.648"/>
	
		<path display="inline" fill="none" stroke="#4D4D4D" stroke-width="7" stroke-linecap="round" stroke-linejoin="round" stroke-miterlimit="10" d="
		M281.835-190.648l14.729,14.729l14.73-14.729c-4.723-1.144-9.655-1.753-14.73-1.753
		C291.49-192.401,286.559-191.792,281.835-190.648z"/>
	<polygon display="inline" fill="#DD6966" points="296.565,-123.144 280.876,-138.833 296.565,-176.099 312.254,-138.833 	"/>
	
		<polygon display="inline" fill="none" stroke="#4D4D4D" stroke-width="7" stroke-linecap="round" stroke-linejoin="round" stroke-miterlimit="10" points="
		296.565,-123.144 280.876,-138.833 296.565,-176.099 312.254,-138.833 	"/>
	<path display="inline" fill="#9C968F" d="M472.322-92.591c0,18.581-78.689,33.644-175.757,33.644
		c-97.068,0-175.757-15.063-175.757-33.644s78.689-33.644,175.757-33.644C393.633-126.235,472.322-111.172,472.322-92.591"/>
	
		<ellipse display="inline" fill="none" stroke="#4D4D4D" stroke-width="7" stroke-linecap="round" stroke-linejoin="round" stroke-miterlimit="10" cx="296.565" cy="-92.591" rx="175.757" ry="33.644"/>
	<path display="inline" fill="#EFD3B6" d="M254.603-134.438c0,17.427-14.127,31.555-31.555,31.555
		c-17.427,0-31.555-14.128-31.555-31.555s14.128-31.555,31.555-31.555C240.476-165.993,254.603-151.864,254.603-134.438"/>
	
		<circle display="inline" fill="none" stroke="#4D4D4D" stroke-width="7" stroke-linecap="round" stroke-linejoin="round" stroke-miterlimit="10" cx="223.048" cy="-134.438" r="31.555"/>
	<path display="inline" fill="#7AD0CB" d="M160.648-30.192c0-34.462,27.937-62.399,62.399-62.399c34.463,0,62.4,27.937,62.4,62.399
		C285.447-12.139,160.648-12.139,160.648-30.192"/>
	
		<path display="inline" fill="none" stroke="#4D4D4D" stroke-width="7" stroke-linecap="round" stroke-linejoin="round" stroke-miterlimit="10" d="
		M160.648-30.192c0-34.462,27.937-62.399,62.399-62.399c34.463,0,62.4,27.937,62.4,62.399
		C285.447-12.139,160.648-12.139,160.648-30.192z"/>
	<path display="inline" fill="#EFD3B6" d="M401.637-134.438c0,17.427-14.127,31.555-31.555,31.555
		c-17.427,0-31.555-14.128-31.555-31.555s14.128-31.555,31.555-31.555C387.51-165.993,401.637-151.864,401.637-134.438"/>
	
		<circle display="inline" fill="none" stroke="#4D4D4D" stroke-width="7" stroke-linecap="round" stroke-linejoin="round" stroke-miterlimit="10" cx="370.082" cy="-134.438" r="31.555"/>
	<path display="inline" fill="#7AD0CB" d="M307.683-30.192c0-34.462,27.937-62.399,62.399-62.399s62.4,27.937,62.4,62.399
		C432.481-12.139,307.683-12.139,307.683-30.192"/>
	
		<path display="inline" fill="none" stroke="#4D4D4D" stroke-width="7" stroke-linecap="round" stroke-linejoin="round" stroke-miterlimit="10" d="
		M307.683-30.192c0-34.462,27.937-62.399,62.399-62.399s62.4,27.937,62.4,62.399C432.481-12.139,307.683-12.139,307.683-30.192z"/>
</g>
<g>
	<path fill="#EFD3B6" d="M409.742,193.942c0,12.182-9.875,22.058-22.058,22.058c-12.182,0-22.057-9.876-22.057-22.058
		s9.875-22.058,22.057-22.058C399.867,171.885,409.742,181.761,409.742,193.942"/>
	
		<circle fill="none" stroke="#4D4D4D" stroke-width="7" stroke-linecap="round" stroke-linejoin="round" stroke-miterlimit="10" cx="387.685" cy="193.942" r="22.058"/>
	<path fill="#C4D89B" d="M344.066,266.812c0-24.09,19.528-43.618,43.618-43.618c24.09,0,43.618,19.528,43.618,43.618
		C431.302,279.431,344.066,279.431,344.066,266.812"/>
	<path fill="none" stroke="#4D4D4D" stroke-width="7" stroke-linecap="round" stroke-linejoin="round" stroke-miterlimit="10" d="
		M344.066,266.812c0-24.09,19.528-43.618,43.618-43.618c24.09,0,43.618,19.528,43.618,43.618
		C431.302,279.431,344.066,279.431,344.066,266.812z"/>
	<path fill="#F69652" d="M377.389,224.419l10.296,10.297l10.296-10.297c-3.301-0.799-6.749-1.226-10.296-1.226
		S380.689,223.62,377.389,224.419"/>
	<path fill="none" stroke="#4D4D4D" stroke-width="7" stroke-linecap="round" stroke-linejoin="round" stroke-miterlimit="10" d="
		M377.389,224.419l10.296,10.297l10.296-10.297c-3.301-0.799-6.749-1.226-10.296-1.226S380.689,223.62,377.389,224.419z"/>
	<polygon fill="#F69652" points="387.685,271.606 376.718,260.64 387.685,234.591 398.651,260.64 	"/>
	
		<polygon fill="none" stroke="#4D4D4D" stroke-width="7" stroke-linecap="round" stroke-linejoin="round" stroke-miterlimit="10" points="
		387.685,271.606 376.718,260.64 387.685,234.591 398.651,260.64 	"/>
	<path fill="#EFD3B6" d="M219.727,193.942c0,12.182-9.875,22.058-22.058,22.058c-12.182,0-22.057-9.876-22.057-22.058
		s9.875-22.058,22.057-22.058C209.852,171.885,219.727,181.761,219.727,193.942"/>
	
		<circle fill="none" stroke="#4D4D4D" stroke-width="7" stroke-linecap="round" stroke-linejoin="round" stroke-miterlimit="10" cx="197.67" cy="193.942" r="22.057"/>
	<path fill="#C3EDF5" d="M154.051,266.812c0-24.09,19.529-43.618,43.618-43.618c24.09,0,43.618,19.528,43.618,43.618
		C241.287,279.431,154.051,279.431,154.051,266.812"/>
	<path fill="none" stroke="#4D4D4D" stroke-width="7" stroke-linecap="round" stroke-linejoin="round" stroke-miterlimit="10" d="
		M154.051,266.812c0-24.09,19.529-43.618,43.618-43.618c24.09,0,43.618,19.528,43.618,43.618
		C241.287,279.431,154.051,279.431,154.051,266.812z"/>
	<path fill="#7AACCC" d="M187.374,224.419l10.296,10.297l10.296-10.297c-3.301-0.799-6.749-1.226-10.296-1.226
		S190.674,223.62,187.374,224.419"/>
	<path fill="none" stroke="#4D4D4D" stroke-width="7" stroke-linecap="round" stroke-linejoin="round" stroke-miterlimit="10" d="
		M187.374,224.419l10.296,10.297l10.296-10.297c-3.301-0.799-6.749-1.226-10.296-1.226S190.674,223.62,187.374,224.419z"/>
	<polygon fill="#7AACCC" points="197.669,271.606 186.702,260.64 197.669,234.591 208.636,260.64 	"/>
	
		<polygon fill="none" stroke="#4D4D4D" stroke-width="7" stroke-linecap="round" stroke-linejoin="round" stroke-miterlimit="10" points="
		197.669,271.606 186.702,260.64 197.669,234.591 208.636,260.64 	"/>
	<path fill="#9C968F" d="M411.924,291.64c0,25.232-53.389,45.688-119.247,45.688S173.43,316.872,173.43,291.64
		s53.389-45.688,119.247-45.688S411.924,266.407,411.924,291.64"/>
	
		<ellipse fill="none" stroke="#4D4D4D" stroke-width="7" stroke-linecap="round" stroke-linejoin="round" stroke-miterlimit="10" cx="292.677" cy="291.64" rx="119.247" ry="45.688"/>
	<path fill="#EFD3B6" d="M314.734,281.534c0,12.183-9.875,22.058-22.057,22.058c-12.182,0-22.058-9.875-22.058-22.058
		c0-12.182,9.876-22.057,22.058-22.057C304.859,259.478,314.734,269.353,314.734,281.534"/>
	
		<circle fill="none" stroke="#4D4D4D" stroke-width="7" stroke-linecap="round" stroke-linejoin="round" stroke-miterlimit="10" cx="292.677" cy="281.534" r="22.058"/>
	<path fill="#E6E6E6" d="M249.059,354.404c0-24.09,19.528-43.618,43.618-43.618c24.09,0,43.618,19.528,43.618,43.618
		C336.295,367.022,249.059,367.022,249.059,354.404"/>
	<path fill="none" stroke="#4D4D4D" stroke-width="7" stroke-linecap="round" stroke-linejoin="round" stroke-miterlimit="10" d="
		M249.059,354.404c0-24.09,19.528-43.618,43.618-43.618c24.09,0,43.618,19.528,43.618,43.618
		C336.295,367.022,249.059,367.022,249.059,354.404z"/>
	<rect x="417.518" y="123.366" fill="#FFDA75" width="80.42" height="51.659"/>
	
		<rect x="417.518" y="123.366" fill="none" stroke="#4D4D4D" stroke-width="7" stroke-linecap="round" stroke-linejoin="round" stroke-miterlimit="10" width="80.42" height="51.659"/>
	
		<polyline fill="none" stroke="#4D4D4D" stroke-width="7" stroke-linecap="round" stroke-linejoin="round" stroke-miterlimit="10" points="
		457.728,175.025 457.728,193.942 431.303,209.465 	"/>
	<rect x="95.192" y="123.366" fill="#F69652" width="80.42" height="51.659"/>
	
		<rect x="95.192" y="123.366" fill="none" stroke="#4D4D4D" stroke-width="7" stroke-linecap="round" stroke-linejoin="round" stroke-miterlimit="10" width="80.42" height="51.659"/>
	
		<polyline fill="none" stroke="#4D4D4D" stroke-width="7" stroke-linecap="round" stroke-linejoin="round" stroke-miterlimit="10" points="
		135.402,175.025 135.402,193.942 161.827,209.465 	"/>
	<rect x="347.475" y="321.1" fill="#DD6966" width="80.42" height="51.659"/>
	
		<rect x="347.475" y="321.1" fill="none" stroke="#4D4D4D" stroke-width="7" stroke-linecap="round" stroke-linejoin="round" stroke-miterlimit="10" width="80.42" height="51.659"/>
	
		<polyline fill="none" stroke="#4D4D4D" stroke-width="7" stroke-linecap="round" stroke-linejoin="round" stroke-miterlimit="10" points="
		387.685,321.1 387.685,302.183 361.26,286.66 	"/>
</g>
<g display="none">
	<path display="inline" fill="#EFD3B6" d="M1128.553,225.916c0,17.428-14.128,31.555-31.555,31.555
		c-17.428,0-31.556-14.127-31.556-31.555s14.128-31.555,31.556-31.555C1114.425,194.361,1128.553,208.488,1128.553,225.916"/>
	
		<circle display="inline" fill="none" stroke="#4D4D4D" stroke-width="7" stroke-linecap="round" stroke-linejoin="round" stroke-miterlimit="10" cx="1096.998" cy="225.916" r="31.555"/>
	<path display="inline" fill="#C3EDF5" d="M1034.599,330.162c0-34.463,27.937-62.399,62.399-62.399
		c34.462,0,62.399,27.937,62.399,62.399C1159.397,348.215,1034.599,348.215,1034.599,330.162"/>
	
		<path display="inline" fill="none" stroke="#4D4D4D" stroke-width="7" stroke-linecap="round" stroke-linejoin="round" stroke-miterlimit="10" d="
		M1034.599,330.162c0-34.463,27.937-62.399,62.399-62.399c34.462,0,62.399,27.937,62.399,62.399
		C1159.397,348.215,1034.599,348.215,1034.599,330.162z"/>
	<path display="inline" fill="#7AACCC" d="M1082.269,269.516l14.729,14.729l14.73-14.729c-4.724-1.143-9.655-1.753-14.73-1.753
		C1091.923,267.763,1086.991,268.373,1082.269,269.516"/>
	
		<path display="inline" fill="none" stroke="#4D4D4D" stroke-width="7" stroke-linecap="round" stroke-linejoin="round" stroke-miterlimit="10" d="
		M1082.269,269.516l14.729,14.729l14.73-14.729c-4.724-1.143-9.655-1.753-14.73-1.753
		C1091.923,267.763,1086.991,268.373,1082.269,269.516z"/>
	<polygon display="inline" fill="#7AACCC" points="1096.998,337.021 1081.309,321.332 1096.998,284.066 1112.686,321.332 	"/>
	
		<polygon display="inline" fill="none" stroke="#4D4D4D" stroke-width="7" stroke-linecap="round" stroke-linejoin="round" stroke-miterlimit="10" points="
		1096.998,337.021 1081.309,321.332 1096.998,284.066 1112.686,321.332 	"/>
	<path display="inline" fill="#EFD3B6" d="M981.838,225.916c0,17.428-14.128,31.555-31.555,31.555
		c-17.428,0-31.555-14.127-31.555-31.555s14.127-31.555,31.555-31.555C967.71,194.361,981.838,208.488,981.838,225.916"/>
	
		<circle display="inline" fill="none" stroke="#4D4D4D" stroke-width="7" stroke-linecap="round" stroke-linejoin="round" stroke-miterlimit="10" cx="950.283" cy="225.916" r="31.555"/>
	<path display="inline" fill="#E6E6E6" d="M887.884,330.162c0-34.463,27.937-62.399,62.399-62.399
		c34.462,0,62.399,27.937,62.399,62.399C1012.683,348.215,887.884,348.215,887.884,330.162"/>
	
		<path display="inline" fill="none" stroke="#4D4D4D" stroke-width="7" stroke-linecap="round" stroke-linejoin="round" stroke-miterlimit="10" d="
		M887.884,330.162c0-34.463,27.937-62.399,62.399-62.399c34.462,0,62.399,27.937,62.399,62.399
		C1012.683,348.215,887.884,348.215,887.884,330.162z"/>
	<path display="inline" fill="#DD6966" d="M935.554,269.516l14.729,14.729l14.73-14.729c-4.724-1.143-9.655-1.753-14.73-1.753
		C945.208,267.763,940.277,268.373,935.554,269.516"/>
	
		<path display="inline" fill="none" stroke="#4D4D4D" stroke-width="7" stroke-linecap="round" stroke-linejoin="round" stroke-miterlimit="10" d="
		M935.554,269.516l14.729,14.729l14.73-14.729c-4.724-1.143-9.655-1.753-14.73-1.753
		C945.208,267.763,940.277,268.373,935.554,269.516z"/>
	<polygon display="inline" fill="#DD6966" points="950.283,337.021 934.594,321.332 950.283,284.066 965.973,321.332 	"/>
	
		<polygon display="inline" fill="none" stroke="#4D4D4D" stroke-width="7" stroke-linecap="round" stroke-linejoin="round" stroke-miterlimit="10" points="
		950.283,337.021 934.594,321.332 950.283,284.066 965.973,321.332 	"/>
	<rect x="1124.388" y="128.075" display="inline" fill="#F69652" width="80.421" height="51.66"/>
	
		<rect x="1124.388" y="128.075" display="inline" fill="none" stroke="#4D4D4D" stroke-width="7" stroke-linecap="round" stroke-linejoin="round" stroke-miterlimit="10" width="80.421" height="51.66"/>
	
		<polyline display="inline" fill="none" stroke="#4D4D4D" stroke-width="7" stroke-linecap="round" stroke-linejoin="round" stroke-miterlimit="10" points="
		1164.598,179.735 1164.598,198.652 1138.173,214.175 	"/>
	<rect x="831.528" y="151.313" display="inline" fill="#DD6966" width="80.42" height="51.658"/>
	
		<rect x="831.528" y="151.313" display="inline" fill="none" stroke="#4D4D4D" stroke-width="7" stroke-linecap="round" stroke-linejoin="round" stroke-miterlimit="10" width="80.42" height="51.658"/>
	
		<polyline display="inline" fill="none" stroke="#4D4D4D" stroke-width="7" stroke-linecap="round" stroke-linejoin="round" stroke-miterlimit="10" points="
		871.738,202.971 871.738,221.889 898.163,237.41 	"/>
	<path display="inline" fill="#9C968F" d="M1167.339,368.05H864.541c-12.901,0-23.359-10.458-23.359-23.359
		c0-12.9,10.458-23.358,23.359-23.358h302.798c12.899,0,23.358,10.458,23.358,23.358
		C1190.697,357.592,1180.238,368.05,1167.339,368.05"/>
	
		<path display="inline" fill="none" stroke="#4D4D4D" stroke-width="7" stroke-linecap="round" stroke-linejoin="round" stroke-miterlimit="10" d="
		M1167.339,368.05H864.541c-12.901,0-23.359-10.458-23.359-23.359c0-12.9,10.458-23.358,23.359-23.358h302.798
		c12.899,0,23.358,10.458,23.358,23.358C1190.697,357.592,1180.238,368.05,1167.339,368.05z"/>
</g>
<g display="none">
	<defs>
		<path id="SVGID_3_" d="M549.466,199.753c0,40.192,32.582,72.775,72.776,72.775c40.192,0,72.775-32.583,72.775-72.775
			c0-40.194-32.583-72.776-72.775-72.776C582.048,126.977,549.466,159.559,549.466,199.753"/>
	</defs>
	<clipPath id="SVGID_4_" display="inline">
		<use xlink:href="#SVGID_3_"  overflow="visible"/>
	</clipPath>
	<path display="inline" clip-path="url(#SVGID_4_)" fill="#EFD3B6" d="M647.851,176.938c0,14.144-11.465,25.609-25.609,25.609
		c-14.143,0-25.609-11.466-25.609-25.609s11.466-25.609,25.609-25.609C636.386,151.328,647.851,162.794,647.851,176.938"/>
	
		<circle display="inline" clip-path="url(#SVGID_4_)" fill="none" stroke="#4D4D4D" stroke-width="7" stroke-linecap="round" stroke-linejoin="round" stroke-miterlimit="10" cx="622.242" cy="176.938" r="25.609"/>
	<path display="inline" clip-path="url(#SVGID_4_)" fill="#E6E6E6" d="M571.601,261.54c0-27.968,22.673-50.642,50.642-50.642
		c27.968,0,50.641,22.674,50.641,50.642C672.884,276.191,571.601,276.191,571.601,261.54"/>
	
		<path display="inline" clip-path="url(#SVGID_4_)" fill="none" stroke="#4D4D4D" stroke-width="7" stroke-linecap="round" stroke-linejoin="round" stroke-miterlimit="10" d="
		M571.601,261.54c0-27.968,22.673-50.642,50.642-50.642c27.968,0,50.641,22.674,50.641,50.642
		C672.884,276.191,571.601,276.191,571.601,261.54z"/>
	<path display="inline" clip-path="url(#SVGID_4_)" fill="#DD6966" d="M610.288,212.322l11.954,11.954l11.954-11.954
		c-3.833-0.928-7.836-1.424-11.954-1.424C618.123,210.898,614.121,211.395,610.288,212.322"/>
	
		<path display="inline" clip-path="url(#SVGID_4_)" fill="none" stroke="#4D4D4D" stroke-width="7" stroke-linecap="round" stroke-linejoin="round" stroke-miterlimit="10" d="
		M610.288,212.322l11.954,11.954l11.954-11.954c-3.833-0.928-7.836-1.424-11.954-1.424
		C618.123,210.898,614.121,211.395,610.288,212.322z"/>
	<polygon display="inline" clip-path="url(#SVGID_4_)" fill="#DD6966" points="622.242,267.107 609.509,254.374 622.242,224.131 
		634.975,254.374 	"/>
	
		<polygon display="inline" clip-path="url(#SVGID_4_)" fill="none" stroke="#4D4D4D" stroke-width="7" stroke-linecap="round" stroke-linejoin="round" stroke-miterlimit="10" points="
		622.242,267.107 609.509,254.374 622.242,224.131 634.975,254.374 	"/>
</g>
<g display="none">
	<defs>
		<rect id="SVGID_5_" x="-50" y="-431" width="1400" height="980"/>
	</defs>
	<clipPath id="SVGID_6_" display="inline">
		<use xlink:href="#SVGID_5_"  overflow="visible"/>
	</clipPath>
	<path display="inline" clip-path="url(#SVGID_6_)" fill="#E6E6E6" d="M622.242,287.183c-48.21,0-87.431-39.221-87.431-87.431
		c0-48.209,39.221-87.431,87.431-87.431s87.431,39.222,87.431,87.431C709.673,247.962,670.452,287.183,622.242,287.183
		 M622.242,126.977c-40.193,0-72.776,32.583-72.776,72.776c0,40.192,32.583,72.775,72.776,72.775
		c40.193,0,72.776-32.583,72.776-72.775C695.019,159.56,662.436,126.977,622.242,126.977"/>
	
		<path display="inline" clip-path="url(#SVGID_6_)" fill="none" stroke="#4D4D4D" stroke-width="7" stroke-linecap="round" stroke-linejoin="round" stroke-miterlimit="10" d="
		M622.242,287.183c-48.21,0-87.431-39.221-87.431-87.431c0-48.209,39.221-87.431,87.431-87.431s87.431,39.222,87.431,87.431
		C709.673,247.962,670.452,287.183,622.242,287.183z M622.242,126.977c-40.193,0-72.776,32.583-72.776,72.776
		c0,40.192,32.583,72.775,72.776,72.775c40.193,0,72.776-32.583,72.776-72.775C695.019,159.56,662.436,126.977,622.242,126.977z"/>
</g>
</svg>
