<?xml version="1.0" encoding="utf-8"?>
<!-- Generator: Adobe Illustrator 16.0.0, SVG Export Plug-In . SVG Version: 6.00 Build 0)  -->
<!DOCTYPE svg PUBLIC "-//W3C//DTD SVG 1.1//EN" "http://www.w3.org/Graphics/SVG/1.1/DTD/svg11.dtd" [
	<!ENTITY ns_extend "http://ns.adobe.com/Extensibility/1.0/">
	<!ENTITY ns_ai "http://ns.adobe.com/AdobeIllustrator/10.0/">
	<!ENTITY ns_graphs "http://ns.adobe.com/Graphs/1.0/">
	<!ENTITY ns_vars "http://ns.adobe.com/Variables/1.0/">
	<!ENTITY ns_imrep "http://ns.adobe.com/ImageReplacement/1.0/">
	<!ENTITY ns_sfw "http://ns.adobe.com/SaveForWeb/1.0/">
	<!ENTITY ns_custom "http://ns.adobe.com/GenericCustomNamespace/1.0/">
	<!ENTITY ns_adobe_xpath "http://ns.adobe.com/XPath/1.0/">
]>
<svg version="1.1" id="Layer_1" xmlns:x="&ns_extend;" xmlns:i="&ns_ai;" xmlns:graph="&ns_graphs;"
	 xmlns="http://www.w3.org/2000/svg" xmlns:xlink="http://www.w3.org/1999/xlink" x="0px" y="0px" width="672px" height="648px"
	 viewBox="-12 -82.5 672 648" enable-background="new -12 -82.5 672 648" xml:space="preserve">
<metadata>
	<sfw  xmlns="&ns_sfw;">
		<slices></slices>
		<sliceSourceBounds  x="-195.459" y="-111.637" width="667.959" height="413.53" bottomLeftOrigin="true"></sliceSourceBounds>
	</sfw>
</metadata>
<g>
	<path fill="#EFD3B6" d="M510.759,191.15c0,19.856-16.205,35.956-36.202,35.956c-19.99,0-36.195-16.099-36.195-35.956
		c0-19.857,16.205-35.957,36.195-35.957C494.554,155.197,510.759,171.295,510.759,191.15"/>
	
		<ellipse fill="none" stroke="#4D4D4D" stroke-width="7" stroke-linecap="round" stroke-linejoin="round" stroke-miterlimit="10" cx="474.561" cy="191.151" rx="36.2" ry="35.956"/>
	<path fill="#C4D89B" d="M402.977,309.935c0-39.27,32.048-71.102,71.58-71.102c39.537,0,71.586,31.833,71.586,71.102
		C546.143,330.505,402.977,330.505,402.977,309.935"/>
	<path fill="none" stroke="#4D4D4D" stroke-width="7" stroke-linecap="round" stroke-linejoin="round" stroke-miterlimit="10" d="
		M402.977,309.935c0-39.27,32.048-71.102,71.58-71.102c39.537,0,71.586,31.833,71.586,71.102
		C546.143,330.505,402.977,330.505,402.977,309.935z"/>
	<path fill="#F69652" d="M457.664,240.83l16.896,16.784l16.899-16.784c-5.422-1.3-11.075-1.999-16.899-1.999
		C468.741,238.833,463.08,239.529,457.664,240.83"/>
	<path fill="none" stroke="#4D4D4D" stroke-width="7" stroke-linecap="round" stroke-linejoin="round" stroke-miterlimit="10" d="
		M457.664,240.83l16.896,16.784l16.899-16.784c-5.422-1.3-11.075-1.999-16.899-1.999C468.741,238.833,463.08,239.529,457.664,240.83
		z"/>
	<polygon fill="#F69652" points="474.561,317.751 456.563,299.875 474.561,257.411 492.559,299.875 	"/>
	
		<polygon fill="none" stroke="#4D4D4D" stroke-width="7" stroke-linecap="round" stroke-linejoin="round" stroke-miterlimit="10" points="
		474.561,317.751 456.563,299.875 474.561,257.411 492.559,299.875 	"/>
	<path fill="#EFD3B6" d="M198.92,191.15c0,19.856-16.208,35.956-36.202,35.956c-19.992,0-36.198-16.099-36.198-35.956
		c0-19.857,16.206-35.957,36.198-35.957C182.713,155.197,198.92,171.295,198.92,191.15"/>
	
		<ellipse fill="none" stroke="#4D4D4D" stroke-width="7" stroke-linecap="round" stroke-linejoin="round" stroke-miterlimit="10" cx="162.721" cy="191.151" rx="36.198" ry="35.954"/>
	<path fill="#C3EDF5" d="M91.137,309.935c0-39.27,32.051-71.102,71.583-71.102c39.537,0,71.583,31.833,71.583,71.102
		C234.302,330.505,91.137,330.505,91.137,309.935"/>
	<path fill="none" stroke="#4D4D4D" stroke-width="7" stroke-linecap="round" stroke-linejoin="round" stroke-miterlimit="10" d="
		M91.137,309.935c0-39.27,32.051-71.102,71.583-71.102c39.537,0,71.583,31.833,71.583,71.102
		C234.302,330.505,91.137,330.505,91.137,309.935z"/>
	<path fill="#7AACCC" d="M145.825,240.83l16.895,16.784l16.897-16.784c-5.416-1.3-11.076-1.999-16.897-1.999
		C156.901,238.833,151.239,239.529,145.825,240.83"/>
	<path fill="none" stroke="#4D4D4D" stroke-width="7" stroke-linecap="round" stroke-linejoin="round" stroke-miterlimit="10" d="
		M145.825,240.83l16.895,16.784l16.897-16.784c-5.416-1.3-11.076-1.999-16.897-1.999
		C156.901,238.833,151.239,239.529,145.825,240.83z"/>
	<polygon fill="#7AACCC" points="162.719,317.751 144.721,299.875 162.719,257.411 180.718,299.875 	"/>
	
		<polygon fill="none" stroke="#4D4D4D" stroke-width="7" stroke-linecap="round" stroke-linejoin="round" stroke-miterlimit="10" points="
		162.719,317.751 144.721,299.875 162.719,257.411 180.718,299.875 	"/>
	<path fill="#9C968F" d="M514.341,350.407c0,41.128-87.617,74.473-195.701,74.473c-108.083,0-195.698-33.344-195.698-74.473
		c0-41.13,87.616-74.479,195.698-74.479C426.724,275.929,514.341,309.275,514.341,350.407"/>
	
		<ellipse fill="none" stroke="#4D4D4D" stroke-width="7" stroke-linecap="round" stroke-linejoin="round" stroke-miterlimit="10" cx="318.64" cy="350.405" rx="195.701" ry="74.475"/>
	<path fill="#EFD3B6" d="M354.839,333.933c0,19.857-16.207,35.954-36.2,35.954c-19.992,0-36.2-16.097-36.2-35.954
		c0-19.856,16.208-35.955,36.2-35.955C338.632,297.981,354.839,314.078,354.839,333.933"/>
	
		<ellipse fill="none" stroke="#4D4D4D" stroke-width="7" stroke-linecap="round" stroke-linejoin="round" stroke-miterlimit="10" cx="318.64" cy="333.931" rx="36.201" ry="35.956"/>
	<path fill="#E6E6E6" d="M247.057,452.715c0-39.267,32.048-71.099,71.583-71.099c39.536,0,71.581,31.832,71.581,71.099
		C390.222,473.287,247.057,473.287,247.057,452.715"/>
	<path fill="none" stroke="#4D4D4D" stroke-width="7" stroke-linecap="round" stroke-linejoin="round" stroke-miterlimit="10" d="
		M247.057,452.715c0-39.267,32.048-71.099,71.583-71.099c39.536,0,71.581,31.832,71.581,71.099
		C390.222,473.287,247.057,473.287,247.057,452.715z"/>
	<rect x="523.52" y="76.106" fill="#FFDA75" width="131.98" height="84.207"/>
	
		<rect x="523.52" y="76.106" fill="none" stroke="#4D4D4D" stroke-width="7" stroke-linecap="round" stroke-linejoin="round" stroke-miterlimit="10" width="131.98" height="84.207"/>
	
		<polyline fill="none" stroke="#4D4D4D" stroke-width="7" stroke-linecap="round" stroke-linejoin="round" stroke-miterlimit="10" points="
		589.509,160.314 589.509,191.15 546.144,216.454 	"/>
	<rect x="-5.459" y="76.106" fill="#F69652" width="131.98" height="84.207"/>
	
		<rect x="-5.459" y="76.106" fill="none" stroke="#4D4D4D" stroke-width="7" stroke-linecap="round" stroke-linejoin="round" stroke-miterlimit="10" width="131.98" height="84.207"/>
	
		<polyline fill="none" stroke="#4D4D4D" stroke-width="7" stroke-linecap="round" stroke-linejoin="round" stroke-miterlimit="10" points="
		60.53,160.314 60.53,191.15 103.898,216.454 	"/>
	<rect x="408.57" y="398.428" fill="#DD6966" width="131.979" height="84.209"/>
	
		<rect x="408.57" y="398.428" fill="none" stroke="#4D4D4D" stroke-width="7" stroke-linecap="round" stroke-linejoin="round" stroke-miterlimit="10" width="131.979" height="84.209"/>
	
		<polyline fill="none" stroke="#4D4D4D" stroke-width="7" stroke-linecap="round" stroke-linejoin="round" stroke-miterlimit="10" points="
		474.561,398.428 474.561,367.592 431.193,342.287 	"/>
</g>
</svg>
