<?xml version="1.0" encoding="utf-8"?>
<!-- Generator: Adobe Illustrator 16.0.0, SVG Export Plug-In . SVG Version: 6.00 Build 0)  -->
<!DOCTYPE svg PUBLIC "-//W3C//DTD SVG 1.1//EN" "http://www.w3.org/Graphics/SVG/1.1/DTD/svg11.dtd" [
	<!ENTITY ns_extend "http://ns.adobe.com/Extensibility/1.0/">
	<!ENTITY ns_ai "http://ns.adobe.com/AdobeIllustrator/10.0/">
	<!ENTITY ns_graphs "http://ns.adobe.com/Graphs/1.0/">
	<!ENTITY ns_vars "http://ns.adobe.com/Variables/1.0/">
	<!ENTITY ns_imrep "http://ns.adobe.com/ImageReplacement/1.0/">
	<!ENTITY ns_sfw "http://ns.adobe.com/SaveForWeb/1.0/">
	<!ENTITY ns_custom "http://ns.adobe.com/GenericCustomNamespace/1.0/">
	<!ENTITY ns_adobe_xpath "http://ns.adobe.com/XPath/1.0/">
]>
<svg version="1.1" id="Layer_1" xmlns:x="&ns_extend;" xmlns:i="&ns_ai;" xmlns:graph="&ns_graphs;"
	 xmlns="http://www.w3.org/2000/svg" xmlns:xlink="http://www.w3.org/1999/xlink" x="0px" y="0px" width="659px" height="516px"
	 viewBox="0 0 659 516" enable-background="new 0 0 659 516" xml:space="preserve">
<metadata>
	<sfw  xmlns="&ns_sfw;">
		<slices></slices>
		<sliceSourceBounds  width="1400" height="980" x="0" y="0" bottomLeftOrigin="true"></sliceSourceBounds>
	</sfw>
</metadata>
<g display="none">
	<defs>
		<rect id="SVGID_1_" x="-741" y="-428" width="1400" height="980"/>
	</defs>
	<clipPath id="SVGID_2_" display="inline">
		<use xlink:href="#SVGID_1_"  overflow="visible"/>
	</clipPath>
	<path display="inline" clip-path="url(#SVGID_2_)" fill="#A6C8DD" d="M-133.6,18.925v-264.723c0-9.392,7.613-17.005,17.004-17.005
		H75.699c9.392,0,17.005,7.613,17.005,17.005V18.925c0,9.391-7.613,17.004-17.005,17.004h-192.295
		C-125.987,35.929-133.6,28.316-133.6,18.925"/>
	
		<path display="inline" clip-path="url(#SVGID_2_)" fill="none" stroke="#4D4D4D" stroke-width="7" stroke-linecap="round" stroke-linejoin="round" stroke-miterlimit="10" d="
		M-133.6,18.925v-264.723c0-9.392,7.613-17.005,17.004-17.005H75.699c9.392,0,17.005,7.613,17.005,17.005V18.925
		c0,9.391-7.613,17.004-17.005,17.004h-192.295C-125.987,35.929-133.6,28.316-133.6,18.925z"/>
	<path display="inline" clip-path="url(#SVGID_2_)" fill="#EFD3B6" d="M3.57-192.409c0,13.265-10.753,24.018-24.02,24.018
		c-13.264,0-24.017-10.753-24.017-24.018s10.753-24.018,24.017-24.018C-7.183-216.427,3.57-205.674,3.57-192.409"/>
	
		<circle display="inline" clip-path="url(#SVGID_2_)" fill="none" stroke="#4D4D4D" stroke-width="7" stroke-linecap="round" stroke-linejoin="round" stroke-miterlimit="10" cx="-20.448" cy="-192.409" r="24.018"/>
	<path display="inline" clip-path="url(#SVGID_2_)" fill="#E6E6E6" d="M-67.943-113.063c0-26.231,21.264-47.495,47.495-47.495
		c26.231,0,47.496,21.264,47.496,47.495C27.048-99.321-67.943-99.321-67.943-113.063"/>
	
		<path display="inline" clip-path="url(#SVGID_2_)" fill="none" stroke="#4D4D4D" stroke-width="7" stroke-linecap="round" stroke-linejoin="round" stroke-miterlimit="10" d="
		M-67.943-113.063c0-26.231,21.264-47.495,47.495-47.495c26.231,0,47.496,21.264,47.496,47.495
		C27.048-99.321-67.943-99.321-67.943-113.063z"/>
	<path display="inline" clip-path="url(#SVGID_2_)" fill="#DD6966" d="M-31.659-159.223l11.211,11.211l11.212-11.211
		c-3.596-0.87-7.349-1.334-11.212-1.334C-24.311-160.557-28.063-160.093-31.659-159.223"/>
	
		<path display="inline" clip-path="url(#SVGID_2_)" fill="none" stroke="#4D4D4D" stroke-width="7" stroke-linecap="round" stroke-linejoin="round" stroke-miterlimit="10" d="
		M-31.659-159.223l11.211,11.211l11.212-11.211c-3.596-0.87-7.349-1.334-11.212-1.334
		C-24.311-160.557-28.063-160.093-31.659-159.223z"/>
	<polygon display="inline" clip-path="url(#SVGID_2_)" fill="#DD6966" points="-20.448,-107.841 -32.39,-119.783 -20.448,-148.148 
		-8.506,-119.783 	"/>
	
		<polygon display="inline" clip-path="url(#SVGID_2_)" fill="none" stroke="#4D4D4D" stroke-width="7" stroke-linecap="round" stroke-linejoin="round" stroke-miterlimit="10" points="
		-20.448,-107.841 -32.39,-119.783 -20.448,-148.148 -8.506,-119.783 	"/>
	<path display="inline" clip-path="url(#SVGID_2_)" fill="#666666" d="M42.088-47.824H-82.984c-4.818,0-8.723-3.906-8.723-8.724
		c0-4.818,3.905-8.724,8.723-8.724H42.088c4.818,0,8.725,3.906,8.725,8.724C50.813-51.73,46.906-47.824,42.088-47.824"/>
	
		<path display="inline" clip-path="url(#SVGID_2_)" fill="none" stroke="#4D4D4D" stroke-width="7" stroke-linecap="round" stroke-linejoin="round" stroke-miterlimit="10" d="
		M42.088-47.824H-82.984c-4.818,0-8.723-3.906-8.723-8.724c0-4.818,3.905-8.724,8.723-8.724H42.088c4.818,0,8.725,3.906,8.725,8.724
		C50.813-51.73,46.906-47.824,42.088-47.824z"/>
	<path display="inline" clip-path="url(#SVGID_2_)" fill="#666666" d="M42.088-20.702H-82.984c-4.818,0-8.723-3.906-8.723-8.724
		c0-4.818,3.905-8.724,8.723-8.724H42.088c4.818,0,8.725,3.906,8.725,8.724C50.813-24.608,46.906-20.702,42.088-20.702"/>
	
		<path display="inline" clip-path="url(#SVGID_2_)" fill="none" stroke="#4D4D4D" stroke-width="7" stroke-linecap="round" stroke-linejoin="round" stroke-miterlimit="10" d="
		M42.088-20.702H-82.984c-4.818,0-8.723-3.906-8.723-8.724c0-4.818,3.905-8.724,8.723-8.724H42.088c4.818,0,8.725,3.906,8.725,8.724
		C50.813-24.608,46.906-20.702,42.088-20.702z"/>
	<path display="inline" clip-path="url(#SVGID_2_)" fill="#666666" d="M42.088,6.419H-82.984c-4.818,0-8.723-3.906-8.723-8.724
		c0-4.818,3.905-8.724,8.723-8.724H42.088c4.818,0,8.725,3.906,8.725,8.724C50.813,2.514,46.906,6.419,42.088,6.419"/>
	
		<path display="inline" clip-path="url(#SVGID_2_)" fill="none" stroke="#4D4D4D" stroke-width="7" stroke-linecap="round" stroke-linejoin="round" stroke-miterlimit="10" d="
		M42.088,6.419H-82.984c-4.818,0-8.723-3.906-8.723-8.724c0-4.818,3.905-8.724,8.723-8.724H42.088c4.818,0,8.725,3.906,8.725,8.724
		C50.813,2.514,46.906,6.419,42.088,6.419z"/>
	<path display="inline" clip-path="url(#SVGID_2_)" fill="#F2F2F2" d="M479.818-46.617H174.518c-9.803,0-17.752-7.948-17.752-17.752
		v-180.682c0-9.804,7.949-17.752,17.752-17.752h305.301c9.805,0,17.752,7.948,17.752,17.752v180.682
		C497.57-54.565,489.623-46.617,479.818-46.617"/>
	
		<path display="inline" clip-path="url(#SVGID_2_)" fill="none" stroke="#4D4D4D" stroke-width="7" stroke-linecap="round" stroke-linejoin="round" stroke-miterlimit="10" d="
		M479.818-46.617H174.518c-9.803,0-17.752-7.948-17.752-17.752v-180.682c0-9.804,7.949-17.752,17.752-17.752h305.301
		c9.805,0,17.752,7.948,17.752,17.752v180.682C497.57-54.565,489.623-46.617,479.818-46.617z"/>
	<path display="inline" clip-path="url(#SVGID_2_)" fill="#EFD3B6" d="M268.443-159.375c0,12.672-10.271,22.944-22.944,22.944
		c-12.671,0-22.943-10.272-22.943-22.944c0-12.671,10.272-22.944,22.943-22.944C258.172-182.318,268.443-172.045,268.443-159.375"/>
	
		<circle display="inline" clip-path="url(#SVGID_2_)" fill="none" stroke="#4D4D4D" stroke-width="7" stroke-linecap="round" stroke-linejoin="round" stroke-miterlimit="10" cx="245.5" cy="-159.375" r="22.944"/>
	<path display="inline" clip-path="url(#SVGID_2_)" fill="#E6E6E6" d="M200.128-83.575c0-25.059,20.313-45.372,45.371-45.372
		c25.059,0,45.372,20.313,45.372,45.372C290.871-70.449,200.128-70.449,200.128-83.575"/>
	
		<path display="inline" clip-path="url(#SVGID_2_)" fill="none" stroke="#4D4D4D" stroke-width="7" stroke-linecap="round" stroke-linejoin="round" stroke-miterlimit="10" d="
		M200.128-83.575c0-25.059,20.313-45.372,45.371-45.372c25.059,0,45.372,20.313,45.372,45.372
		C290.871-70.449,200.128-70.449,200.128-83.575z"/>
	<path display="inline" clip-path="url(#SVGID_2_)" fill="#DD6966" d="M234.789-127.672l10.71,10.71l10.711-10.71
		c-3.435-0.831-7.021-1.275-10.711-1.275C241.811-128.947,238.225-128.503,234.789-127.672"/>
	
		<path display="inline" clip-path="url(#SVGID_2_)" fill="none" stroke="#4D4D4D" stroke-width="7" stroke-linecap="round" stroke-linejoin="round" stroke-miterlimit="10" d="
		M234.789-127.672l10.71,10.71l10.711-10.71c-3.435-0.831-7.021-1.275-10.711-1.275
		C241.811-128.947,238.225-128.503,234.789-127.672z"/>
	<polygon display="inline" clip-path="url(#SVGID_2_)" fill="#DD6966" points="245.499,-78.588 234.092,-89.996 245.499,-117.092 
		256.907,-89.996 	"/>
	
		<polygon display="inline" clip-path="url(#SVGID_2_)" fill="none" stroke="#4D4D4D" stroke-width="7" stroke-linecap="round" stroke-linejoin="round" stroke-miterlimit="10" points="
		245.499,-78.588 234.092,-89.996 245.499,-117.092 256.907,-89.996 	"/>
	<path display="inline" clip-path="url(#SVGID_2_)" fill="#666666" d="M454.981-165.579H335.502c-4.603,0-8.334-3.731-8.334-8.334
		s3.731-8.334,8.334-8.334h119.479c4.603,0,8.334,3.731,8.334,8.334S459.584-165.579,454.981-165.579"/>
	
		<path display="inline" clip-path="url(#SVGID_2_)" fill="none" stroke="#4D4D4D" stroke-width="7" stroke-linecap="round" stroke-linejoin="round" stroke-miterlimit="10" d="
		M454.981-165.579H335.502c-4.603,0-8.334-3.731-8.334-8.334s3.731-8.334,8.334-8.334h119.479c4.603,0,8.334,3.731,8.334,8.334
		S459.584-165.579,454.981-165.579z"/>
	<path display="inline" clip-path="url(#SVGID_2_)" fill="#666666" d="M454.981-119.691H335.502c-4.603,0-8.334-3.731-8.334-8.333
		c0-4.604,3.731-8.334,8.334-8.334h119.479c4.603,0,8.334,3.73,8.334,8.334C463.315-123.422,459.584-119.691,454.981-119.691"/>
	
		<path display="inline" clip-path="url(#SVGID_2_)" fill="none" stroke="#4D4D4D" stroke-width="7" stroke-linecap="round" stroke-linejoin="round" stroke-miterlimit="10" d="
		M454.981-119.691H335.502c-4.603,0-8.334-3.731-8.334-8.333c0-4.604,3.731-8.334,8.334-8.334h119.479
		c4.603,0,8.334,3.73,8.334,8.334C463.315-123.422,459.584-119.691,454.981-119.691z"/>
	<path display="inline" clip-path="url(#SVGID_2_)" fill="#666666" d="M454.981-73.802H335.502c-4.603,0-8.334-3.731-8.334-8.334
		s3.731-8.334,8.334-8.334h119.479c4.603,0,8.334,3.731,8.334,8.334S459.584-73.802,454.981-73.802"/>
	
		<path display="inline" clip-path="url(#SVGID_2_)" fill="none" stroke="#4D4D4D" stroke-width="7" stroke-linecap="round" stroke-linejoin="round" stroke-miterlimit="10" d="
		M454.981-73.802H335.502c-4.603,0-8.334-3.731-8.334-8.334s3.731-8.334,8.334-8.334h119.479c4.603,0,8.334,3.731,8.334,8.334
		S459.584-73.802,454.981-73.802z"/>
	<path display="inline" clip-path="url(#SVGID_2_)" fill="#DD6966" d="M453.529-212.353H200.808
		c-7.718,0-13.974-6.256-13.974-13.974c0-7.717,6.256-13.973,13.974-13.973h252.722c7.717,0,13.974,6.256,13.974,13.973
		C467.503-218.608,461.246-212.353,453.529-212.353"/>
	
		<path display="inline" clip-path="url(#SVGID_2_)" fill="none" stroke="#4D4D4D" stroke-width="7" stroke-linecap="round" stroke-linejoin="round" stroke-miterlimit="10" d="
		M453.529-212.353H200.808c-7.718,0-13.974-6.256-13.974-13.974c0-7.717,6.256-13.973,13.974-13.973h252.722
		c7.717,0,13.974,6.256,13.974,13.973C467.503-218.608,461.246-212.353,453.529-212.353z"/>
	
		<rect x="-0.081" y="251.583" transform="matrix(0.7071 -0.7071 0.7071 0.7071 -196.7626 90.767)" display="inline" clip-path="url(#SVGID_2_)" fill="#B3B3B3" width="22.54" height="62.649"/>
	
		<rect x="-0.081" y="251.583" transform="matrix(0.7071 -0.7071 0.7071 0.7071 -196.7626 90.767)" display="inline" clip-path="url(#SVGID_2_)" fill="none" stroke="#4D4D4D" stroke-width="7" stroke-linecap="round" stroke-linejoin="round" stroke-miterlimit="10" width="22.54" height="62.649"/>
	<path display="inline" clip-path="url(#SVGID_2_)" fill="#666666" d="M108.259,379.769L108.259,379.769
		c-9.38,9.38-24.587,9.38-33.966,0l-57.784-57.784c-9.379-9.379-9.379-24.586,0-33.965v-0.001c9.379-9.379,24.586-9.379,33.965,0
		l57.785,57.785C117.638,355.183,117.638,370.39,108.259,379.769"/>
	
		<path display="inline" clip-path="url(#SVGID_2_)" fill="none" stroke="#4D4D4D" stroke-width="7" stroke-linecap="round" stroke-linejoin="round" stroke-miterlimit="10" d="
		M108.259,379.769L108.259,379.769c-9.38,9.38-24.587,9.38-33.966,0l-57.784-57.784c-9.379-9.379-9.379-24.586,0-33.965v-0.001
		c9.379-9.379,24.586-9.379,33.965,0l57.785,57.785C117.638,355.183,117.638,370.39,108.259,379.769z"/>
	<path display="inline" clip-path="url(#SVGID_2_)" fill="#C3EDF5" d="M-68.758,129.977c-40.193,0-72.776,32.583-72.776,72.776
		c0,40.192,32.583,72.775,72.776,72.775c40.193,0,72.776-32.583,72.776-72.775C4.019,162.56-28.564,129.977-68.758,129.977"/>
</g>
<g display="none">
	<path display="inline" fill="#EFD3B6" d="M-226.964-189.736c0,17.427-14.127,31.555-31.555,31.555
		c-17.427,0-31.555-14.128-31.555-31.555c0-17.427,14.128-31.555,31.555-31.555C-241.091-221.291-226.964-207.163-226.964-189.736"
		/>
	
		<circle display="inline" fill="none" stroke="#4D4D4D" stroke-width="7" stroke-linecap="round" stroke-linejoin="round" stroke-miterlimit="10" cx="-258.519" cy="-189.736" r="31.555"/>
	<path display="inline" fill="#C4D89B" d="M-320.918-85.49c0-34.462,27.937-62.399,62.399-62.399s62.4,27.937,62.4,62.399
		C-196.119-67.437-320.918-67.437-320.918-85.49"/>
	
		<path display="inline" fill="none" stroke="#4D4D4D" stroke-width="7" stroke-linecap="round" stroke-linejoin="round" stroke-miterlimit="10" d="
		M-320.918-85.49c0-34.462,27.937-62.399,62.399-62.399s62.4,27.937,62.4,62.399C-196.119-67.437-320.918-67.437-320.918-85.49z"/>
	<path display="inline" fill="#F69652" d="M-273.248-146.136l14.729,14.729l14.73-14.729c-4.724-1.143-9.655-1.753-14.73-1.753
		C-263.593-147.889-268.525-147.279-273.248-146.136"/>
	
		<path display="inline" fill="none" stroke="#4D4D4D" stroke-width="7" stroke-linecap="round" stroke-linejoin="round" stroke-miterlimit="10" d="
		M-273.248-146.136l14.729,14.729l14.73-14.729c-4.724-1.143-9.655-1.753-14.73-1.753
		C-263.593-147.889-268.525-147.279-273.248-146.136z"/>
	<polygon display="inline" fill="#F69652" points="-258.519,-78.631 -274.208,-94.32 -258.519,-131.586 -242.83,-94.32 	"/>
	
		<polygon display="inline" fill="none" stroke="#4D4D4D" stroke-width="7" stroke-linecap="round" stroke-linejoin="round" stroke-miterlimit="10" points="
		-258.519,-78.631 -274.208,-94.32 -258.519,-131.586 -242.83,-94.32 	"/>
	<path display="inline" fill="#EFD3B6" d="M-498.796-189.736c0,17.427-14.127,31.555-31.555,31.555
		c-17.427,0-31.555-14.128-31.555-31.555c0-17.427,14.128-31.555,31.555-31.555C-512.923-221.291-498.796-207.163-498.796-189.736"
		/>
	
		<circle display="inline" fill="none" stroke="#4D4D4D" stroke-width="7" stroke-linecap="round" stroke-linejoin="round" stroke-miterlimit="10" cx="-530.351" cy="-189.736" r="31.555"/>
	<path display="inline" fill="#C3EDF5" d="M-592.751-85.49c0-34.462,27.937-62.399,62.399-62.399c34.463,0,62.4,27.937,62.4,62.399
		C-467.952-67.437-592.751-67.437-592.751-85.49"/>
	
		<path display="inline" fill="none" stroke="#4D4D4D" stroke-width="7" stroke-linecap="round" stroke-linejoin="round" stroke-miterlimit="10" d="
		M-592.751-85.49c0-34.462,27.937-62.399,62.399-62.399c34.463,0,62.4,27.937,62.4,62.399
		C-467.952-67.437-592.751-67.437-592.751-85.49z"/>
	<path display="inline" fill="#7AACCC" d="M-545.081-146.136l14.729,14.729l14.729-14.729c-4.723-1.143-9.654-1.753-14.729-1.753
		C-535.426-147.889-540.357-147.279-545.081-146.136"/>
	
		<path display="inline" fill="none" stroke="#4D4D4D" stroke-width="7" stroke-linecap="round" stroke-linejoin="round" stroke-miterlimit="10" d="
		M-545.081-146.136l14.729,14.729l14.729-14.729c-4.723-1.143-9.654-1.753-14.729-1.753
		C-535.426-147.889-540.357-147.279-545.081-146.136z"/>
	<polygon display="inline" fill="#7AACCC" points="-530.352,-78.631 -546.041,-94.32 -530.352,-131.586 -514.663,-94.32 	"/>
	
		<polygon display="inline" fill="none" stroke="#4D4D4D" stroke-width="7" stroke-linecap="round" stroke-linejoin="round" stroke-miterlimit="10" points="
		-530.352,-78.631 -546.041,-94.32 -530.352,-131.586 -514.663,-94.32 	"/>
	<path display="inline" fill="#EFD3B6" d="M-362.88-231.248c0,17.427-14.128,31.555-31.555,31.555
		c-17.427,0-31.555-14.128-31.555-31.555c0-17.428,14.128-31.555,31.555-31.555C-377.008-262.803-362.88-248.676-362.88-231.248"/>
	
		<circle display="inline" fill="none" stroke="#4D4D4D" stroke-width="7" stroke-linecap="round" stroke-linejoin="round" stroke-miterlimit="10" cx="-394.435" cy="-231.248" r="31.555"/>
	<path display="inline" fill="#E6E6E6" d="M-456.834-127.002c0-34.462,27.937-62.399,62.399-62.399
		c34.463,0,62.4,27.937,62.4,62.399C-332.036-108.949-456.834-108.949-456.834-127.002"/>
	
		<path display="inline" fill="none" stroke="#4D4D4D" stroke-width="7" stroke-linecap="round" stroke-linejoin="round" stroke-miterlimit="10" d="
		M-456.834-127.002c0-34.462,27.937-62.399,62.399-62.399c34.463,0,62.4,27.937,62.4,62.399
		C-332.036-108.949-456.834-108.949-456.834-127.002z"/>
	<path display="inline" fill="#DD6966" d="M-409.165-187.648l14.729,14.729l14.73-14.729c-4.723-1.144-9.655-1.753-14.73-1.753
		C-399.51-189.401-404.441-188.792-409.165-187.648"/>
	
		<path display="inline" fill="none" stroke="#4D4D4D" stroke-width="7" stroke-linecap="round" stroke-linejoin="round" stroke-miterlimit="10" d="
		M-409.165-187.648l14.729,14.729l14.73-14.729c-4.723-1.144-9.655-1.753-14.73-1.753
		C-399.51-189.401-404.441-188.792-409.165-187.648z"/>
	<polygon display="inline" fill="#DD6966" points="-394.435,-120.144 -410.124,-135.833 -394.435,-173.099 -378.746,-135.833 	"/>
	
		<polygon display="inline" fill="none" stroke="#4D4D4D" stroke-width="7" stroke-linecap="round" stroke-linejoin="round" stroke-miterlimit="10" points="
		-394.435,-120.144 -410.124,-135.833 -394.435,-173.099 -378.746,-135.833 	"/>
	<path display="inline" fill="#9C968F" d="M-218.678-89.591c0,18.581-78.689,33.644-175.757,33.644
		c-97.068,0-175.757-15.063-175.757-33.644s78.689-33.644,175.757-33.644C-297.367-123.235-218.678-108.172-218.678-89.591"/>
	
		<ellipse display="inline" fill="none" stroke="#4D4D4D" stroke-width="7" stroke-linecap="round" stroke-linejoin="round" stroke-miterlimit="10" cx="-394.435" cy="-89.591" rx="175.757" ry="33.644"/>
	<path display="inline" fill="#EFD3B6" d="M-436.397-131.438c0,17.427-14.127,31.555-31.555,31.555
		c-17.427,0-31.555-14.128-31.555-31.555s14.128-31.555,31.555-31.555C-450.524-162.993-436.397-148.864-436.397-131.438"/>
	
		<circle display="inline" fill="none" stroke="#4D4D4D" stroke-width="7" stroke-linecap="round" stroke-linejoin="round" stroke-miterlimit="10" cx="-467.952" cy="-131.438" r="31.555"/>
	<path display="inline" fill="#7AD0CB" d="M-530.352-27.192c0-34.462,27.937-62.399,62.399-62.399c34.463,0,62.4,27.937,62.4,62.399
		C-405.553-9.139-530.352-9.139-530.352-27.192"/>
	
		<path display="inline" fill="none" stroke="#4D4D4D" stroke-width="7" stroke-linecap="round" stroke-linejoin="round" stroke-miterlimit="10" d="
		M-530.352-27.192c0-34.462,27.937-62.399,62.399-62.399c34.463,0,62.4,27.937,62.4,62.399
		C-405.553-9.139-530.352-9.139-530.352-27.192z"/>
	<path display="inline" fill="#EFD3B6" d="M-289.363-131.438c0,17.427-14.127,31.555-31.555,31.555
		c-17.427,0-31.555-14.128-31.555-31.555s14.128-31.555,31.555-31.555C-303.49-162.993-289.363-148.864-289.363-131.438"/>
	
		<circle display="inline" fill="none" stroke="#4D4D4D" stroke-width="7" stroke-linecap="round" stroke-linejoin="round" stroke-miterlimit="10" cx="-320.918" cy="-131.438" r="31.555"/>
	<path display="inline" fill="#7AD0CB" d="M-383.317-27.192c0-34.462,27.937-62.399,62.399-62.399s62.4,27.937,62.4,62.399
		C-258.519-9.139-383.317-9.139-383.317-27.192"/>
	
		<path display="inline" fill="none" stroke="#4D4D4D" stroke-width="7" stroke-linecap="round" stroke-linejoin="round" stroke-miterlimit="10" d="
		M-383.317-27.192c0-34.462,27.937-62.399,62.399-62.399s62.4,27.937,62.4,62.399C-258.519-9.139-383.317-9.139-383.317-27.192z"/>
</g>
<g display="none">
	<path display="inline" fill="#EFD3B6" d="M-281.258,196.942c0,12.182-9.875,22.058-22.058,22.058
		c-12.182,0-22.057-9.876-22.057-22.058s9.875-22.058,22.057-22.058C-291.133,174.885-281.258,184.761-281.258,196.942"/>
	
		<circle display="inline" fill="none" stroke="#4D4D4D" stroke-width="7" stroke-linecap="round" stroke-linejoin="round" stroke-miterlimit="10" cx="-303.315" cy="196.942" r="22.058"/>
	<path display="inline" fill="#C4D89B" d="M-346.934,269.812c0-24.09,19.528-43.618,43.618-43.618
		c24.09,0,43.618,19.528,43.618,43.618C-259.698,282.431-346.934,282.431-346.934,269.812"/>
	
		<path display="inline" fill="none" stroke="#4D4D4D" stroke-width="7" stroke-linecap="round" stroke-linejoin="round" stroke-miterlimit="10" d="
		M-346.934,269.812c0-24.09,19.528-43.618,43.618-43.618c24.09,0,43.618,19.528,43.618,43.618
		C-259.698,282.431-346.934,282.431-346.934,269.812z"/>
	<path display="inline" fill="#F69652" d="M-313.611,227.419l10.296,10.297l10.296-10.297c-3.301-0.799-6.749-1.226-10.296-1.226
		S-310.311,226.62-313.611,227.419"/>
	
		<path display="inline" fill="none" stroke="#4D4D4D" stroke-width="7" stroke-linecap="round" stroke-linejoin="round" stroke-miterlimit="10" d="
		M-313.611,227.419l10.296,10.297l10.296-10.297c-3.301-0.799-6.749-1.226-10.296-1.226S-310.311,226.62-313.611,227.419z"/>
	<polygon display="inline" fill="#F69652" points="-303.315,274.606 -314.282,263.64 -303.315,237.591 -292.349,263.64 	"/>
	
		<polygon display="inline" fill="none" stroke="#4D4D4D" stroke-width="7" stroke-linecap="round" stroke-linejoin="round" stroke-miterlimit="10" points="
		-303.315,274.606 -314.282,263.64 -303.315,237.591 -292.349,263.64 	"/>
	<path display="inline" fill="#EFD3B6" d="M-471.273,196.942c0,12.182-9.875,22.058-22.058,22.058
		c-12.182,0-22.057-9.876-22.057-22.058s9.875-22.058,22.057-22.058C-481.148,174.885-471.273,184.761-471.273,196.942"/>
	
		<circle display="inline" fill="none" stroke="#4D4D4D" stroke-width="7" stroke-linecap="round" stroke-linejoin="round" stroke-miterlimit="10" cx="-493.33" cy="196.942" r="22.057"/>
	<path display="inline" fill="#C3EDF5" d="M-536.949,269.812c0-24.09,19.529-43.618,43.618-43.618
		c24.09,0,43.618,19.528,43.618,43.618C-449.713,282.431-536.949,282.431-536.949,269.812"/>
	
		<path display="inline" fill="none" stroke="#4D4D4D" stroke-width="7" stroke-linecap="round" stroke-linejoin="round" stroke-miterlimit="10" d="
		M-536.949,269.812c0-24.09,19.529-43.618,43.618-43.618c24.09,0,43.618,19.528,43.618,43.618
		C-449.713,282.431-536.949,282.431-536.949,269.812z"/>
	<path display="inline" fill="#7AACCC" d="M-503.626,227.419l10.296,10.297l10.296-10.297c-3.301-0.799-6.749-1.226-10.296-1.226
		S-500.326,226.62-503.626,227.419"/>
	
		<path display="inline" fill="none" stroke="#4D4D4D" stroke-width="7" stroke-linecap="round" stroke-linejoin="round" stroke-miterlimit="10" d="
		M-503.626,227.419l10.296,10.297l10.296-10.297c-3.301-0.799-6.749-1.226-10.296-1.226S-500.326,226.62-503.626,227.419z"/>
	<polygon display="inline" fill="#7AACCC" points="-493.331,274.606 -504.298,263.64 -493.331,237.591 -482.364,263.64 	"/>
	
		<polygon display="inline" fill="none" stroke="#4D4D4D" stroke-width="7" stroke-linecap="round" stroke-linejoin="round" stroke-miterlimit="10" points="
		-493.331,274.606 -504.298,263.64 -493.331,237.591 -482.364,263.64 	"/>
	<path display="inline" fill="#9C968F" d="M-279.076,294.64c0,25.232-53.389,45.688-119.247,45.688S-517.57,319.872-517.57,294.64
		s53.389-45.688,119.247-45.688S-279.076,269.407-279.076,294.64"/>
	
		<ellipse display="inline" fill="none" stroke="#4D4D4D" stroke-width="7" stroke-linecap="round" stroke-linejoin="round" stroke-miterlimit="10" cx="-398.323" cy="294.64" rx="119.247" ry="45.688"/>
	<path display="inline" fill="#EFD3B6" d="M-376.266,284.534c0,12.183-9.875,22.058-22.057,22.058
		c-12.182,0-22.058-9.875-22.058-22.058c0-12.182,9.876-22.057,22.058-22.057C-386.141,262.478-376.266,272.353-376.266,284.534"/>
	
		<circle display="inline" fill="none" stroke="#4D4D4D" stroke-width="7" stroke-linecap="round" stroke-linejoin="round" stroke-miterlimit="10" cx="-398.323" cy="284.534" r="22.058"/>
	<path display="inline" fill="#E6E6E6" d="M-441.941,357.404c0-24.09,19.528-43.618,43.618-43.618
		c24.09,0,43.618,19.528,43.618,43.618C-354.705,370.022-441.941,370.022-441.941,357.404"/>
	
		<path display="inline" fill="none" stroke="#4D4D4D" stroke-width="7" stroke-linecap="round" stroke-linejoin="round" stroke-miterlimit="10" d="
		M-441.941,357.404c0-24.09,19.528-43.618,43.618-43.618c24.09,0,43.618,19.528,43.618,43.618
		C-354.705,370.022-441.941,370.022-441.941,357.404z"/>
	<rect x="-273.482" y="126.366" display="inline" fill="#FFDA75" width="80.42" height="51.659"/>
	
		<rect x="-273.482" y="126.366" display="inline" fill="none" stroke="#4D4D4D" stroke-width="7" stroke-linecap="round" stroke-linejoin="round" stroke-miterlimit="10" width="80.42" height="51.659"/>
	
		<polyline display="inline" fill="none" stroke="#4D4D4D" stroke-width="7" stroke-linecap="round" stroke-linejoin="round" stroke-miterlimit="10" points="
		-233.272,178.025 -233.272,196.942 -259.697,212.465 	"/>
	<rect x="-595.808" y="126.366" display="inline" fill="#F69652" width="80.42" height="51.659"/>
	
		<rect x="-595.808" y="126.366" display="inline" fill="none" stroke="#4D4D4D" stroke-width="7" stroke-linecap="round" stroke-linejoin="round" stroke-miterlimit="10" width="80.42" height="51.659"/>
	
		<polyline display="inline" fill="none" stroke="#4D4D4D" stroke-width="7" stroke-linecap="round" stroke-linejoin="round" stroke-miterlimit="10" points="
		-555.598,178.025 -555.598,196.942 -529.173,212.465 	"/>
	<rect x="-343.525" y="324.1" display="inline" fill="#DD6966" width="80.42" height="51.659"/>
	
		<rect x="-343.525" y="324.1" display="inline" fill="none" stroke="#4D4D4D" stroke-width="7" stroke-linecap="round" stroke-linejoin="round" stroke-miterlimit="10" width="80.42" height="51.659"/>
	
		<polyline display="inline" fill="none" stroke="#4D4D4D" stroke-width="7" stroke-linecap="round" stroke-linejoin="round" stroke-miterlimit="10" points="
		-303.315,324.1 -303.315,305.183 -329.74,289.66 	"/>
</g>
<g>
	<path fill="#EFD3B6" d="M437.553,228.916c0,17.428-14.128,31.555-31.555,31.555c-17.428,0-31.556-14.127-31.556-31.555
		s14.128-31.555,31.556-31.555C423.425,197.361,437.553,211.488,437.553,228.916"/>
	
		<circle fill="none" stroke="#4D4D4D" stroke-width="7" stroke-linecap="round" stroke-linejoin="round" stroke-miterlimit="10" cx="405.998" cy="228.916" r="31.555"/>
	<path fill="#C3EDF5" d="M343.599,333.162c0-34.463,27.937-62.399,62.399-62.399c34.462,0,62.399,27.937,62.399,62.399
		C468.397,351.215,343.599,351.215,343.599,333.162"/>
	<path fill="none" stroke="#4D4D4D" stroke-width="7" stroke-linecap="round" stroke-linejoin="round" stroke-miterlimit="10" d="
		M343.599,333.162c0-34.463,27.937-62.399,62.399-62.399c34.462,0,62.399,27.937,62.399,62.399
		C468.397,351.215,343.599,351.215,343.599,333.162z"/>
	<path fill="#7AACCC" d="M391.269,272.516l14.729,14.729l14.73-14.729c-4.724-1.143-9.655-1.753-14.73-1.753
		C400.923,270.763,395.991,271.373,391.269,272.516"/>
	<path fill="none" stroke="#4D4D4D" stroke-width="7" stroke-linecap="round" stroke-linejoin="round" stroke-miterlimit="10" d="
		M391.269,272.516l14.729,14.729l14.73-14.729c-4.724-1.143-9.655-1.753-14.73-1.753
		C400.923,270.763,395.991,271.373,391.269,272.516z"/>
	<polygon fill="#7AACCC" points="405.998,340.021 390.309,324.332 405.998,287.066 421.686,324.332 	"/>
	
		<polygon fill="none" stroke="#4D4D4D" stroke-width="7" stroke-linecap="round" stroke-linejoin="round" stroke-miterlimit="10" points="
		405.998,340.021 390.309,324.332 405.998,287.066 421.686,324.332 	"/>
	<path fill="#EFD3B6" d="M290.838,228.916c0,17.428-14.128,31.555-31.555,31.555c-17.428,0-31.555-14.127-31.555-31.555
		s14.127-31.555,31.555-31.555C276.71,197.361,290.838,211.488,290.838,228.916"/>
	
		<circle fill="none" stroke="#4D4D4D" stroke-width="7" stroke-linecap="round" stroke-linejoin="round" stroke-miterlimit="10" cx="259.283" cy="228.916" r="31.555"/>
	<path fill="#E6E6E6" d="M196.884,333.162c0-34.463,27.937-62.399,62.399-62.399c34.462,0,62.399,27.937,62.399,62.399
		C321.683,351.215,196.884,351.215,196.884,333.162"/>
	<path fill="none" stroke="#4D4D4D" stroke-width="7" stroke-linecap="round" stroke-linejoin="round" stroke-miterlimit="10" d="
		M196.884,333.162c0-34.463,27.937-62.399,62.399-62.399c34.462,0,62.399,27.937,62.399,62.399
		C321.683,351.215,196.884,351.215,196.884,333.162z"/>
	<path fill="#DD6966" d="M244.554,272.516l14.729,14.729l14.73-14.729c-4.724-1.143-9.655-1.753-14.73-1.753
		C254.208,270.763,249.277,271.373,244.554,272.516"/>
	<path fill="none" stroke="#4D4D4D" stroke-width="7" stroke-linecap="round" stroke-linejoin="round" stroke-miterlimit="10" d="
		M244.554,272.516l14.729,14.729l14.73-14.729c-4.724-1.143-9.655-1.753-14.73-1.753
		C254.208,270.763,249.277,271.373,244.554,272.516z"/>
	<polygon fill="#DD6966" points="259.283,340.021 243.594,324.332 259.283,287.066 274.973,324.332 	"/>
	
		<polygon fill="none" stroke="#4D4D4D" stroke-width="7" stroke-linecap="round" stroke-linejoin="round" stroke-miterlimit="10" points="
		259.283,340.021 243.594,324.332 259.283,287.066 274.973,324.332 	"/>
	<rect x="433.388" y="131.075" fill="#F69652" width="80.421" height="51.66"/>
	
		<rect x="433.388" y="131.075" fill="none" stroke="#4D4D4D" stroke-width="7" stroke-linecap="round" stroke-linejoin="round" stroke-miterlimit="10" width="80.421" height="51.66"/>
	
		<polyline fill="none" stroke="#4D4D4D" stroke-width="7" stroke-linecap="round" stroke-linejoin="round" stroke-miterlimit="10" points="
		473.598,182.735 473.598,201.652 447.173,217.175 	"/>
	<rect x="140.528" y="154.313" fill="#DD6966" width="80.42" height="51.658"/>
	
		<rect x="140.528" y="154.313" fill="none" stroke="#4D4D4D" stroke-width="7" stroke-linecap="round" stroke-linejoin="round" stroke-miterlimit="10" width="80.42" height="51.658"/>
	
		<polyline fill="none" stroke="#4D4D4D" stroke-width="7" stroke-linecap="round" stroke-linejoin="round" stroke-miterlimit="10" points="
		180.738,205.971 180.738,224.889 207.163,240.41 	"/>
	<path fill="#9C968F" d="M476.339,371.05H173.541c-12.901,0-23.359-10.458-23.359-23.359c0-12.9,10.458-23.358,23.359-23.358
		h302.798c12.899,0,23.358,10.458,23.358,23.358C499.697,360.592,489.238,371.05,476.339,371.05"/>
	<path fill="none" stroke="#4D4D4D" stroke-width="7" stroke-linecap="round" stroke-linejoin="round" stroke-miterlimit="10" d="
		M476.339,371.05H173.541c-12.901,0-23.359-10.458-23.359-23.359c0-12.9,10.458-23.358,23.359-23.358h302.798
		c12.899,0,23.358,10.458,23.358,23.358C499.697,360.592,489.238,371.05,476.339,371.05z"/>
</g>
<g display="none">
	<defs>
		<path id="SVGID_3_" d="M-141.534,202.753c0,40.192,32.582,72.775,72.776,72.775c40.192,0,72.775-32.583,72.775-72.775
			c0-40.194-32.583-72.776-72.775-72.776C-108.952,129.977-141.534,162.559-141.534,202.753"/>
	</defs>
	<clipPath id="SVGID_4_" display="inline">
		<use xlink:href="#SVGID_3_"  overflow="visible"/>
	</clipPath>
	<path display="inline" clip-path="url(#SVGID_4_)" fill="#EFD3B6" d="M-43.149,179.938c0,14.144-11.465,25.609-25.609,25.609
		c-14.143,0-25.609-11.466-25.609-25.609s11.466-25.609,25.609-25.609C-54.614,154.328-43.149,165.794-43.149,179.938"/>
	
		<circle display="inline" clip-path="url(#SVGID_4_)" fill="none" stroke="#4D4D4D" stroke-width="7" stroke-linecap="round" stroke-linejoin="round" stroke-miterlimit="10" cx="-68.758" cy="179.938" r="25.609"/>
	<path display="inline" clip-path="url(#SVGID_4_)" fill="#E6E6E6" d="M-119.399,264.54c0-27.968,22.673-50.642,50.642-50.642
		c27.968,0,50.641,22.674,50.641,50.642C-18.116,279.191-119.399,279.191-119.399,264.54"/>
	
		<path display="inline" clip-path="url(#SVGID_4_)" fill="none" stroke="#4D4D4D" stroke-width="7" stroke-linecap="round" stroke-linejoin="round" stroke-miterlimit="10" d="
		M-119.399,264.54c0-27.968,22.673-50.642,50.642-50.642c27.968,0,50.641,22.674,50.641,50.642
		C-18.116,279.191-119.399,279.191-119.399,264.54z"/>
	<path display="inline" clip-path="url(#SVGID_4_)" fill="#DD6966" d="M-80.712,215.322l11.954,11.954l11.954-11.954
		c-3.833-0.928-7.836-1.424-11.954-1.424C-72.877,213.898-76.879,214.395-80.712,215.322"/>
	
		<path display="inline" clip-path="url(#SVGID_4_)" fill="none" stroke="#4D4D4D" stroke-width="7" stroke-linecap="round" stroke-linejoin="round" stroke-miterlimit="10" d="
		M-80.712,215.322l11.954,11.954l11.954-11.954c-3.833-0.928-7.836-1.424-11.954-1.424
		C-72.877,213.898-76.879,214.395-80.712,215.322z"/>
	<polygon display="inline" clip-path="url(#SVGID_4_)" fill="#DD6966" points="-68.758,270.107 -81.491,257.374 -68.758,227.131 
		-56.025,257.374 	"/>
	
		<polygon display="inline" clip-path="url(#SVGID_4_)" fill="none" stroke="#4D4D4D" stroke-width="7" stroke-linecap="round" stroke-linejoin="round" stroke-miterlimit="10" points="
		-68.758,270.107 -81.491,257.374 -68.758,227.131 -56.025,257.374 	"/>
</g>
<g display="none">
	<defs>
		<rect id="SVGID_5_" x="-741" y="-428" width="1400" height="980"/>
	</defs>
	<clipPath id="SVGID_6_" display="inline">
		<use xlink:href="#SVGID_5_"  overflow="visible"/>
	</clipPath>
	<path display="inline" clip-path="url(#SVGID_6_)" fill="#E6E6E6" d="M-68.758,290.183c-48.21,0-87.431-39.221-87.431-87.431
		c0-48.209,39.221-87.431,87.431-87.431s87.431,39.222,87.431,87.431C18.673,250.962-20.548,290.183-68.758,290.183
		 M-68.758,129.977c-40.193,0-72.776,32.583-72.776,72.776c0,40.192,32.583,72.775,72.776,72.775
		c40.193,0,72.776-32.583,72.776-72.775C4.019,162.56-28.564,129.977-68.758,129.977"/>
	
		<path display="inline" clip-path="url(#SVGID_6_)" fill="none" stroke="#4D4D4D" stroke-width="7" stroke-linecap="round" stroke-linejoin="round" stroke-miterlimit="10" d="
		M-68.758,290.183c-48.21,0-87.431-39.221-87.431-87.431c0-48.209,39.221-87.431,87.431-87.431s87.431,39.222,87.431,87.431
		C18.673,250.962-20.548,290.183-68.758,290.183z M-68.758,129.977c-40.193,0-72.776,32.583-72.776,72.776
		c0,40.192,32.583,72.775,72.776,72.775c40.193,0,72.776-32.583,72.776-72.775C4.019,162.56-28.564,129.977-68.758,129.977z"/>
</g>
</svg>
